G75*
%MOIN*%
%OFA0B0*%
%FSLAX24Y24*%
%IPPOS*%
%LPD*%
%AMOC8*
5,1,8,0,0,1.08239X$1,22.5*
%
%ADD10R,0.0433X0.0394*%
%ADD11R,0.0394X0.0433*%
%ADD12C,0.0118*%
%ADD13R,0.0236X0.0472*%
%ADD14R,0.0571X0.0118*%
%ADD15R,0.0571X0.0236*%
%ADD16R,0.0571X0.0217*%
%ADD17C,0.0394*%
%ADD18C,0.0600*%
%ADD19C,0.0500*%
%ADD20C,0.0120*%
%ADD21C,0.0160*%
%ADD22R,0.0376X0.0376*%
%ADD23R,0.0400X0.0400*%
D10*
X009822Y013983D03*
X010491Y013983D03*
X010511Y014783D03*
X009842Y014783D03*
D11*
X015346Y019099D03*
X015346Y019768D03*
X016846Y015368D03*
X017496Y015368D03*
X017496Y014699D03*
X016846Y014699D03*
D12*
X020308Y014850D02*
X020584Y014850D01*
X020308Y014850D02*
X020308Y015126D01*
X020584Y015126D01*
X020584Y014850D01*
X020584Y014967D02*
X020308Y014967D01*
X020308Y015084D02*
X020584Y015084D01*
X020584Y015541D02*
X020308Y015541D01*
X020308Y015817D01*
X020584Y015817D01*
X020584Y015541D01*
X020584Y015658D02*
X020308Y015658D01*
X020308Y015775D02*
X020584Y015775D01*
X020584Y018400D02*
X020308Y018400D01*
X020308Y018676D01*
X020584Y018676D01*
X020584Y018400D01*
X020584Y018517D02*
X020308Y018517D01*
X020308Y018634D02*
X020584Y018634D01*
X020584Y019091D02*
X020308Y019091D01*
X020308Y019367D01*
X020584Y019367D01*
X020584Y019091D01*
X020584Y019208D02*
X020308Y019208D01*
X020308Y019325D02*
X020584Y019325D01*
D13*
X016846Y018336D03*
X016346Y018336D03*
X015846Y018336D03*
X015346Y018336D03*
X014846Y018336D03*
X014346Y018336D03*
X013846Y018336D03*
X013346Y018336D03*
X013346Y016131D03*
X013846Y016131D03*
X014346Y016131D03*
X014846Y016131D03*
X015346Y016131D03*
X015846Y016131D03*
X016346Y016131D03*
X016846Y016131D03*
D14*
X010546Y016494D03*
X010546Y016691D03*
X010546Y016888D03*
X010546Y017085D03*
X010546Y017282D03*
X010546Y017479D03*
X010546Y017675D03*
X010546Y017872D03*
D15*
X010546Y018453D03*
X010546Y015914D03*
D16*
X010546Y016219D03*
X010546Y018148D03*
D17*
X010402Y018884D02*
X009970Y018884D01*
X008658Y018884D02*
X008422Y018884D01*
X008422Y015483D02*
X008658Y015483D01*
X009970Y015483D02*
X010402Y015483D01*
D18*
X015546Y014933D02*
X016146Y014933D01*
X016146Y013933D02*
X015546Y013933D01*
D19*
X016596Y019723D03*
D20*
X007896Y009083D02*
X007946Y008933D01*
X008096Y008833D01*
X008296Y008783D01*
X008496Y008833D01*
X008696Y008933D01*
X010196Y010433D01*
X010446Y010483D01*
X012096Y010483D01*
X012146Y010833D01*
X012146Y012233D01*
X012246Y012333D01*
X013746Y012333D01*
X013896Y012283D01*
X013896Y011033D01*
X013846Y010833D01*
X012146Y008983D01*
X011996Y008683D01*
X011996Y008433D01*
X012146Y008283D01*
X012396Y008183D01*
X012646Y008283D01*
X014746Y010483D01*
X014796Y010833D01*
X014796Y012083D01*
X014846Y012333D01*
X015646Y012283D01*
X016146Y012333D01*
X016096Y011233D01*
X016096Y010683D01*
X018246Y009283D01*
X018546Y009183D01*
X018796Y009183D01*
X018946Y009383D01*
X018996Y009633D01*
X018896Y009883D01*
X018646Y010083D01*
X016996Y011133D01*
X016996Y012233D01*
X017146Y012333D01*
X017996Y012333D01*
X018196Y012383D01*
X018846Y013383D01*
X019096Y013583D01*
X019596Y013583D01*
X019996Y013633D01*
X020446Y013733D01*
X020846Y013883D01*
X021096Y014033D01*
X021396Y014233D01*
X022046Y014733D01*
X022446Y015183D01*
X022646Y015433D01*
X022896Y015433D01*
X023796Y015033D01*
X024546Y014583D01*
X025096Y014133D01*
X025546Y013533D01*
X025846Y012933D01*
X026096Y012633D01*
X026296Y012583D01*
X026446Y012583D01*
X026646Y012683D01*
X026696Y012833D01*
X026696Y013083D01*
X026396Y013683D01*
X025996Y014233D01*
X025646Y014633D01*
X025246Y015033D01*
X024796Y015383D01*
X024096Y015783D01*
X023096Y016183D01*
X023396Y016683D01*
X023496Y016883D01*
X023546Y017183D01*
X023496Y017483D01*
X023296Y017883D01*
X023096Y018183D01*
X023946Y018483D01*
X024496Y018783D01*
X025146Y019233D01*
X025596Y019633D01*
X025896Y019983D01*
X026246Y020383D01*
X026496Y020783D01*
X026646Y021133D01*
X026696Y021383D01*
X026696Y021533D01*
X026596Y021683D01*
X026396Y021783D01*
X026246Y021783D01*
X026096Y021683D01*
X025846Y021433D01*
X025496Y020783D01*
X024996Y020183D01*
X024496Y019683D01*
X023796Y019333D01*
X023346Y019133D01*
X022846Y018933D01*
X022646Y018933D01*
X022446Y019133D01*
X021996Y019633D01*
X021896Y019733D01*
X021546Y020033D01*
X021146Y020283D01*
X020696Y020533D01*
X020196Y020683D01*
X019846Y020733D01*
X019296Y020783D01*
X018946Y020833D01*
X018746Y021083D01*
X018446Y021683D01*
X018146Y021983D01*
X017996Y022033D01*
X016996Y022033D01*
X016946Y022183D01*
X016946Y022433D01*
X016996Y023083D01*
X017096Y023283D01*
X017646Y023633D01*
X018796Y024333D01*
X018946Y024533D01*
X018996Y024833D01*
X018896Y025033D01*
X018696Y025133D01*
X018446Y025133D01*
X018296Y025083D01*
X016146Y023683D01*
X016096Y023333D01*
X016096Y022033D01*
X014846Y022033D01*
X014746Y022183D01*
X014796Y023683D01*
X014696Y023983D01*
X012646Y026083D01*
X012446Y026133D01*
X012246Y026133D01*
X011996Y025883D01*
X011996Y025633D01*
X012146Y025283D01*
X013896Y023483D01*
X013896Y022133D01*
X013846Y022033D01*
X013696Y021983D01*
X012346Y021983D01*
X012146Y022083D01*
X012096Y022283D01*
X012096Y023833D01*
X010246Y023833D01*
X008546Y025533D01*
X008246Y025533D01*
X007996Y025433D01*
X007896Y025233D01*
X007896Y024983D01*
X008046Y024783D01*
X009446Y023383D01*
X009746Y023033D01*
X009996Y022933D01*
X011196Y022933D01*
X011246Y022783D01*
X011246Y021983D01*
X011096Y021883D01*
X010546Y021683D01*
X009846Y021333D01*
X009246Y020883D01*
X008846Y020533D01*
X008446Y020133D01*
X007896Y019483D01*
X007496Y018933D01*
X007446Y018433D01*
X007446Y015483D01*
X007746Y015133D01*
X008046Y014683D01*
X008346Y014333D01*
X008596Y014033D01*
X009046Y013583D01*
X009746Y013083D01*
X010196Y012833D01*
X010646Y012633D01*
X010946Y012533D01*
X011196Y012433D01*
X011246Y012283D01*
X011246Y012083D01*
X011196Y011583D01*
X011196Y011433D01*
X010996Y011383D01*
X010296Y011433D01*
X009846Y011333D01*
X009546Y011133D01*
X007996Y009483D01*
X007896Y009283D01*
X007896Y009083D01*
X007900Y009073D02*
X008836Y009073D01*
X008718Y008955D02*
X007939Y008955D01*
X008092Y008836D02*
X008502Y008836D01*
X008955Y009192D02*
X007896Y009192D01*
X007910Y009310D02*
X009073Y009310D01*
X009192Y009429D02*
X007969Y009429D01*
X008056Y009547D02*
X009310Y009547D01*
X009429Y009666D02*
X008168Y009666D01*
X008279Y009784D02*
X009547Y009784D01*
X009666Y009903D02*
X008390Y009903D01*
X008502Y010021D02*
X009784Y010021D01*
X009903Y010140D02*
X008613Y010140D01*
X008724Y010258D02*
X010021Y010258D01*
X010140Y010377D02*
X008836Y010377D01*
X008947Y010495D02*
X012098Y010495D01*
X012115Y010614D02*
X009058Y010614D01*
X009169Y010732D02*
X012132Y010732D01*
X012146Y010851D02*
X009281Y010851D01*
X009392Y010969D02*
X012146Y010969D01*
X012146Y011088D02*
X009503Y011088D01*
X009656Y011206D02*
X012146Y011206D01*
X012146Y011325D02*
X009833Y011325D01*
X011005Y012510D02*
X018278Y012510D01*
X018201Y012391D02*
X011210Y012391D01*
X011246Y012273D02*
X012186Y012273D01*
X012146Y012154D02*
X011246Y012154D01*
X011241Y012036D02*
X012146Y012036D01*
X012146Y011917D02*
X011230Y011917D01*
X011218Y011799D02*
X012146Y011799D01*
X012146Y011680D02*
X011206Y011680D01*
X011196Y011562D02*
X012146Y011562D01*
X012146Y011443D02*
X011196Y011443D01*
X010661Y012628D02*
X018355Y012628D01*
X018432Y012747D02*
X010391Y012747D01*
X010139Y012865D02*
X018509Y012865D01*
X018587Y012984D02*
X009925Y012984D01*
X009720Y013102D02*
X018664Y013102D01*
X018741Y013221D02*
X009554Y013221D01*
X009388Y013339D02*
X018818Y013339D01*
X018939Y013458D02*
X009222Y013458D01*
X009056Y013576D02*
X015255Y013576D01*
X015247Y013582D02*
X015305Y013540D01*
X015370Y013507D01*
X015438Y013485D01*
X015510Y013473D01*
X015806Y013473D01*
X015806Y013893D01*
X015886Y013893D01*
X015886Y013473D01*
X016182Y013473D01*
X016254Y013485D01*
X016323Y013507D01*
X016387Y013540D01*
X016446Y013582D01*
X016497Y013634D01*
X016540Y013692D01*
X016572Y013757D01*
X016595Y013826D01*
X016606Y013893D01*
X015886Y013893D01*
X015886Y013973D01*
X016606Y013973D01*
X016595Y014041D01*
X016572Y014110D01*
X016540Y014174D01*
X016497Y014233D01*
X016446Y014284D01*
X016387Y014327D01*
X016323Y014360D01*
X016254Y014382D01*
X016182Y014393D01*
X015886Y014393D01*
X015886Y013973D01*
X015806Y013973D01*
X015806Y013893D01*
X015087Y013893D01*
X015098Y013826D01*
X015120Y013757D01*
X015153Y013692D01*
X015195Y013634D01*
X015247Y013582D01*
X015151Y013695D02*
X010839Y013695D01*
X010835Y013688D02*
X010856Y013725D01*
X010867Y013765D01*
X010867Y013945D01*
X010529Y013945D01*
X010529Y013626D01*
X010728Y013626D01*
X010769Y013637D01*
X010806Y013658D01*
X010835Y013688D01*
X010867Y013813D02*
X015101Y013813D01*
X015087Y013973D02*
X015806Y013973D01*
X015806Y014393D01*
X015510Y014393D01*
X015438Y014382D01*
X015370Y014360D01*
X015305Y014327D01*
X015247Y014284D01*
X015195Y014233D01*
X015153Y014174D01*
X015120Y014110D01*
X015098Y014041D01*
X015087Y013973D01*
X015101Y014050D02*
X010867Y014050D01*
X010867Y014022D02*
X010867Y014201D01*
X010856Y014242D01*
X010835Y014278D01*
X010806Y014308D01*
X010769Y014329D01*
X010728Y014340D01*
X010529Y014340D01*
X010529Y014022D01*
X010452Y014022D01*
X010452Y014340D01*
X010253Y014340D01*
X010213Y014329D01*
X010176Y014308D01*
X010146Y014278D01*
X010138Y014264D01*
X010092Y014310D01*
X009763Y014310D01*
X009617Y014456D01*
X010112Y014456D01*
X010158Y014503D01*
X010166Y014488D01*
X010196Y014458D01*
X010233Y014437D01*
X010273Y014426D01*
X010472Y014426D01*
X010472Y014745D01*
X010549Y014745D01*
X010549Y014426D01*
X010748Y014426D01*
X010789Y014437D01*
X010826Y014458D01*
X010855Y014488D01*
X010876Y014525D01*
X010887Y014565D01*
X010887Y014745D01*
X010549Y014745D01*
X010549Y014822D01*
X010472Y014822D01*
X010472Y015140D01*
X010273Y015140D01*
X010233Y015129D01*
X010196Y015108D01*
X010166Y015078D01*
X010158Y015064D01*
X010112Y015110D01*
X009783Y015110D01*
X009586Y015307D01*
X009586Y016305D01*
X009675Y016393D01*
X009967Y016393D01*
X010056Y016304D01*
X010131Y016304D01*
X010131Y016257D01*
X010123Y016264D01*
X010029Y016303D01*
X009926Y016303D01*
X009831Y016264D01*
X009759Y016192D01*
X009719Y016097D01*
X009719Y015994D01*
X009759Y015899D01*
X009831Y015827D01*
X009889Y015803D01*
X009784Y015760D01*
X009692Y015668D01*
X009643Y015548D01*
X009643Y015418D01*
X009692Y015297D01*
X009784Y015205D01*
X009904Y015156D01*
X010467Y015156D01*
X010588Y015205D01*
X010680Y015297D01*
X010729Y015418D01*
X010729Y015548D01*
X010693Y015636D01*
X010853Y015636D01*
X010893Y015646D01*
X010930Y015668D01*
X010960Y015697D01*
X010981Y015734D01*
X010992Y015774D01*
X010992Y015895D01*
X011448Y015895D01*
X011524Y015971D01*
X011524Y016023D01*
X011545Y016023D01*
X011935Y016413D01*
X013098Y016413D01*
X013098Y015841D01*
X013174Y015765D01*
X013518Y015765D01*
X013594Y015841D01*
X013594Y016413D01*
X013598Y016413D01*
X013598Y015841D01*
X013674Y015765D01*
X014018Y015765D01*
X014094Y015841D01*
X014094Y016413D01*
X014098Y016413D01*
X014098Y015841D01*
X014174Y015765D01*
X014518Y015765D01*
X014594Y015841D01*
X014594Y016413D01*
X014598Y016413D01*
X014598Y015841D01*
X014674Y015765D01*
X015018Y015765D01*
X015094Y015841D01*
X015094Y016413D01*
X015098Y016413D01*
X015098Y015841D01*
X015174Y015765D01*
X015518Y015765D01*
X015594Y015841D01*
X015594Y016413D01*
X015598Y016413D01*
X015598Y015841D01*
X015674Y015765D01*
X016018Y015765D01*
X016094Y015841D01*
X016094Y016413D01*
X016098Y016413D01*
X016098Y015841D01*
X016174Y015765D01*
X016518Y015765D01*
X016594Y015841D01*
X016594Y016413D01*
X016598Y016413D01*
X016598Y015841D01*
X016636Y015803D01*
X016636Y015715D01*
X016595Y015715D01*
X016519Y015638D01*
X016519Y015156D01*
X016511Y015177D01*
X016390Y015298D01*
X016232Y015363D01*
X015461Y015363D01*
X015303Y015298D01*
X015182Y015177D01*
X015116Y015019D01*
X015116Y014848D01*
X015182Y014690D01*
X015303Y014569D01*
X015461Y014503D01*
X016232Y014503D01*
X016390Y014569D01*
X016511Y014690D01*
X016530Y014737D01*
X016808Y014737D01*
X016808Y014660D01*
X016885Y014660D01*
X016885Y014322D01*
X017064Y014322D01*
X017105Y014333D01*
X017141Y014354D01*
X017171Y014384D01*
X017187Y014411D01*
X017245Y014352D01*
X017747Y014352D01*
X017823Y014428D01*
X017823Y014489D01*
X020244Y014489D01*
X020416Y014661D01*
X020662Y014661D01*
X020773Y014772D01*
X020773Y015204D01*
X020662Y015315D01*
X020230Y015315D01*
X020119Y015204D01*
X020119Y014958D01*
X020070Y014909D01*
X017823Y014909D01*
X017823Y014969D01*
X017759Y015033D01*
X017823Y015098D01*
X017823Y015638D01*
X017747Y015715D01*
X017245Y015715D01*
X017171Y015640D01*
X017097Y015715D01*
X017056Y015715D01*
X017056Y015803D01*
X017094Y015841D01*
X017094Y016421D01*
X017036Y016479D01*
X017036Y016572D01*
X016815Y016793D01*
X014075Y016793D01*
X015036Y017755D01*
X015036Y017988D01*
X015094Y018046D01*
X015094Y018626D01*
X015018Y018702D01*
X014674Y018702D01*
X014598Y018626D01*
X014598Y018046D01*
X014656Y017988D01*
X014656Y017912D01*
X014536Y017792D01*
X014536Y017988D01*
X014594Y018046D01*
X014594Y018626D01*
X014518Y018702D01*
X014174Y018702D01*
X014098Y018626D01*
X014098Y018046D01*
X014156Y017988D01*
X014156Y017812D01*
X013619Y017275D01*
X011524Y017275D01*
X011524Y017705D01*
X011466Y017763D01*
X011524Y017821D01*
X011524Y018305D01*
X011448Y018381D01*
X010992Y018381D01*
X010992Y018453D01*
X010992Y018592D01*
X010981Y018633D01*
X010960Y018669D01*
X010930Y018699D01*
X010893Y018720D01*
X010853Y018731D01*
X010693Y018731D01*
X010729Y018819D01*
X010729Y018949D01*
X010680Y019069D01*
X010588Y019161D01*
X010467Y019211D01*
X009904Y019211D01*
X009784Y019161D01*
X009692Y019069D01*
X009643Y018949D01*
X009643Y018819D01*
X009692Y018699D01*
X009784Y018607D01*
X009889Y018564D01*
X009831Y018540D01*
X009759Y018467D01*
X009719Y018372D01*
X009719Y018270D01*
X009759Y018175D01*
X009831Y018102D01*
X009926Y018063D01*
X010029Y018063D01*
X010123Y018102D01*
X010131Y018110D01*
X010131Y017986D01*
X010131Y017985D01*
X010131Y017865D01*
X009910Y017865D01*
X009067Y017023D01*
X008956Y016912D01*
X008956Y015618D01*
X008935Y015668D01*
X008844Y015760D01*
X008723Y015809D01*
X008357Y015809D01*
X008237Y015760D01*
X008145Y015668D01*
X008095Y015548D01*
X008095Y015418D01*
X008145Y015297D01*
X008237Y015205D01*
X008357Y015156D01*
X008723Y015156D01*
X008844Y015205D01*
X008935Y015297D01*
X008956Y015347D01*
X008956Y014580D01*
X009475Y014061D01*
X009475Y013733D01*
X009551Y013656D01*
X010092Y013656D01*
X010138Y013703D01*
X010146Y013688D01*
X010176Y013658D01*
X010213Y013637D01*
X010253Y013626D01*
X010452Y013626D01*
X010452Y013945D01*
X010529Y013945D01*
X010529Y014022D01*
X010867Y014022D01*
X010867Y013932D02*
X015806Y013932D01*
X015886Y013932D02*
X020927Y013932D01*
X021122Y014050D02*
X016592Y014050D01*
X016542Y014169D02*
X021299Y014169D01*
X021466Y014287D02*
X016442Y014287D01*
X016521Y014384D02*
X016551Y014354D01*
X016588Y014333D01*
X016628Y014322D01*
X016808Y014322D01*
X016808Y014660D01*
X016489Y014660D01*
X016489Y014461D01*
X016500Y014420D01*
X016521Y014384D01*
X016509Y014406D02*
X009668Y014406D01*
X009367Y014169D02*
X008483Y014169D01*
X008384Y014287D02*
X009249Y014287D01*
X009130Y014406D02*
X008284Y014406D01*
X008182Y014524D02*
X009012Y014524D01*
X008956Y014643D02*
X008081Y014643D01*
X007994Y014761D02*
X008956Y014761D01*
X008956Y014880D02*
X007915Y014880D01*
X007836Y014998D02*
X008956Y014998D01*
X008956Y015117D02*
X007757Y015117D01*
X007659Y015235D02*
X008207Y015235D01*
X008122Y015354D02*
X007557Y015354D01*
X007456Y015472D02*
X008095Y015472D01*
X008113Y015591D02*
X007446Y015591D01*
X007446Y015709D02*
X008187Y015709D01*
X008894Y015709D02*
X008956Y015709D01*
X008956Y015828D02*
X007446Y015828D01*
X007446Y015946D02*
X008956Y015946D01*
X008956Y016065D02*
X007446Y016065D01*
X007446Y016183D02*
X008956Y016183D01*
X008956Y016302D02*
X007446Y016302D01*
X007446Y016420D02*
X008956Y016420D01*
X008956Y016539D02*
X007446Y016539D01*
X007446Y016657D02*
X008956Y016657D01*
X008956Y016776D02*
X007446Y016776D01*
X007446Y016894D02*
X008956Y016894D01*
X009057Y017013D02*
X007446Y017013D01*
X007446Y017131D02*
X009176Y017131D01*
X009294Y017250D02*
X007446Y017250D01*
X007446Y017368D02*
X009413Y017368D01*
X009531Y017487D02*
X007446Y017487D01*
X007446Y017605D02*
X009650Y017605D01*
X009768Y017724D02*
X007446Y017724D01*
X007446Y017842D02*
X009887Y017842D01*
X009988Y017675D02*
X009146Y016833D01*
X009146Y014659D01*
X009822Y013983D01*
X009475Y013932D02*
X008698Y013932D01*
X008582Y014050D02*
X009475Y014050D01*
X009475Y013813D02*
X008816Y013813D01*
X008935Y013695D02*
X009513Y013695D01*
X010130Y013695D02*
X010142Y013695D01*
X010452Y013695D02*
X010529Y013695D01*
X010529Y013813D02*
X010452Y013813D01*
X010452Y013932D02*
X010529Y013932D01*
X010529Y014050D02*
X010452Y014050D01*
X010452Y014169D02*
X010529Y014169D01*
X010529Y014287D02*
X010452Y014287D01*
X010472Y014524D02*
X010549Y014524D01*
X010549Y014643D02*
X010472Y014643D01*
X010549Y014761D02*
X015152Y014761D01*
X015116Y014880D02*
X010887Y014880D01*
X010887Y014822D02*
X010887Y015001D01*
X010876Y015042D01*
X010855Y015078D01*
X010826Y015108D01*
X010789Y015129D01*
X010748Y015140D01*
X010549Y015140D01*
X010549Y014822D01*
X010887Y014822D01*
X010887Y014998D02*
X015116Y014998D01*
X015157Y015117D02*
X010811Y015117D01*
X010618Y015235D02*
X015240Y015235D01*
X015438Y015354D02*
X010703Y015354D01*
X010729Y015472D02*
X016519Y015472D01*
X016519Y015354D02*
X016255Y015354D01*
X016452Y015235D02*
X016519Y015235D01*
X016519Y015591D02*
X010711Y015591D01*
X010967Y015709D02*
X016590Y015709D01*
X016581Y015828D02*
X016611Y015828D01*
X016598Y015946D02*
X016594Y015946D01*
X016594Y016065D02*
X016598Y016065D01*
X016594Y016183D02*
X016598Y016183D01*
X016594Y016302D02*
X016598Y016302D01*
X016846Y016131D02*
X016846Y016493D01*
X016736Y016603D01*
X011856Y016603D01*
X011466Y016213D01*
X011206Y016213D01*
X011201Y016219D01*
X010546Y016219D01*
X010546Y016494D02*
X010135Y016494D01*
X010046Y016583D01*
X009596Y016583D01*
X009396Y016383D01*
X009396Y015229D01*
X009842Y014783D01*
X009777Y015117D02*
X010211Y015117D01*
X010472Y015117D02*
X010549Y015117D01*
X010549Y014998D02*
X010472Y014998D01*
X010472Y014880D02*
X010549Y014880D01*
X010887Y014643D02*
X015229Y014643D01*
X015410Y014524D02*
X010876Y014524D01*
X010826Y014287D02*
X015251Y014287D01*
X015150Y014169D02*
X010867Y014169D01*
X010155Y014287D02*
X010115Y014287D01*
X009754Y015235D02*
X009658Y015235D01*
X009669Y015354D02*
X009586Y015354D01*
X009586Y015472D02*
X009643Y015472D01*
X009660Y015591D02*
X009586Y015591D01*
X009586Y015709D02*
X009734Y015709D01*
X009830Y015828D02*
X009586Y015828D01*
X009586Y015946D02*
X009739Y015946D01*
X009719Y016065D02*
X009586Y016065D01*
X009586Y016183D02*
X009755Y016183D01*
X009922Y016302D02*
X009586Y016302D01*
X010033Y016302D02*
X010131Y016302D01*
X010546Y015914D02*
X010946Y015914D01*
X010946Y015914D01*
X010546Y015914D01*
X010546Y015914D01*
X010992Y015828D02*
X013111Y015828D01*
X013098Y015946D02*
X011499Y015946D01*
X011586Y016065D02*
X013098Y016065D01*
X013098Y016183D02*
X011705Y016183D01*
X011823Y016302D02*
X013098Y016302D01*
X013594Y016302D02*
X013598Y016302D01*
X013594Y016183D02*
X013598Y016183D01*
X013594Y016065D02*
X013598Y016065D01*
X013594Y015946D02*
X013598Y015946D01*
X013611Y015828D02*
X013581Y015828D01*
X014081Y015828D02*
X014111Y015828D01*
X014098Y015946D02*
X014094Y015946D01*
X014094Y016065D02*
X014098Y016065D01*
X014094Y016183D02*
X014098Y016183D01*
X014094Y016302D02*
X014098Y016302D01*
X014594Y016302D02*
X014598Y016302D01*
X014594Y016183D02*
X014598Y016183D01*
X014594Y016065D02*
X014598Y016065D01*
X014594Y015946D02*
X014598Y015946D01*
X014611Y015828D02*
X014581Y015828D01*
X015081Y015828D02*
X015111Y015828D01*
X015098Y015946D02*
X015094Y015946D01*
X015094Y016065D02*
X015098Y016065D01*
X015094Y016183D02*
X015098Y016183D01*
X015094Y016302D02*
X015098Y016302D01*
X015594Y016302D02*
X015598Y016302D01*
X015594Y016183D02*
X015598Y016183D01*
X015594Y016065D02*
X015598Y016065D01*
X015594Y015946D02*
X015598Y015946D01*
X015611Y015828D02*
X015581Y015828D01*
X016081Y015828D02*
X016111Y015828D01*
X016098Y015946D02*
X016094Y015946D01*
X016094Y016065D02*
X016098Y016065D01*
X016094Y016183D02*
X016098Y016183D01*
X016094Y016302D02*
X016098Y016302D01*
X016832Y016776D02*
X020256Y016776D01*
X020256Y016894D02*
X014176Y016894D01*
X014294Y017013D02*
X020256Y017013D01*
X020256Y017131D02*
X014413Y017131D01*
X014531Y017250D02*
X020256Y017250D01*
X020256Y017368D02*
X014650Y017368D01*
X014768Y017487D02*
X020256Y017487D01*
X020256Y017605D02*
X014887Y017605D01*
X015005Y017724D02*
X020256Y017724D01*
X020256Y017842D02*
X015036Y017842D01*
X015036Y017961D02*
X016648Y017961D01*
X016630Y017971D02*
X016666Y017950D01*
X016707Y017939D01*
X016846Y017939D01*
X016846Y018336D01*
X016846Y018732D01*
X016707Y018732D01*
X016666Y018721D01*
X016630Y018700D01*
X016600Y018670D01*
X016582Y018638D01*
X016556Y018664D01*
X016556Y019343D01*
X016672Y019343D01*
X016811Y019401D01*
X016918Y019508D01*
X016976Y019648D01*
X016976Y019799D01*
X016918Y019939D01*
X016811Y020045D01*
X016672Y020103D01*
X016521Y020103D01*
X016381Y020045D01*
X016274Y019939D01*
X016216Y019799D01*
X016216Y019648D01*
X016218Y019642D01*
X016136Y019560D01*
X016136Y019177D01*
X016100Y019213D01*
X015673Y019213D01*
X015673Y019369D01*
X015627Y019415D01*
X015641Y019423D01*
X015671Y019453D01*
X015692Y019490D01*
X015703Y019530D01*
X015703Y019730D01*
X015385Y019730D01*
X015385Y019806D01*
X015703Y019806D01*
X015703Y020006D01*
X015692Y020046D01*
X015671Y020083D01*
X015641Y020113D01*
X015605Y020134D01*
X015564Y020145D01*
X015385Y020145D01*
X015385Y019806D01*
X015308Y019806D01*
X015308Y019730D01*
X014989Y019730D01*
X014989Y019530D01*
X015000Y019490D01*
X015021Y019453D01*
X015051Y019423D01*
X015065Y019415D01*
X015019Y019369D01*
X015019Y018828D01*
X015095Y018752D01*
X015156Y018752D01*
X015156Y018684D01*
X015098Y018626D01*
X015098Y018046D01*
X015174Y017969D01*
X015518Y017969D01*
X015594Y018046D01*
X015594Y018553D01*
X015598Y018553D01*
X015598Y018046D01*
X015674Y017969D01*
X016018Y017969D01*
X016094Y018046D01*
X016094Y018553D01*
X016098Y018553D01*
X016098Y018046D01*
X016174Y017969D01*
X016518Y017969D01*
X016582Y018033D01*
X016600Y018001D01*
X016630Y017971D01*
X016846Y017961D02*
X016846Y017961D01*
X016846Y017939D02*
X016985Y017939D01*
X017026Y017950D01*
X017063Y017971D01*
X017092Y018001D01*
X017113Y018038D01*
X017124Y018078D01*
X017124Y018336D01*
X017124Y018593D01*
X017113Y018634D01*
X017092Y018670D01*
X017063Y018700D01*
X017026Y018721D01*
X016985Y018732D01*
X016846Y018732D01*
X016846Y018336D01*
X016846Y018336D01*
X017124Y018336D01*
X016846Y018336D01*
X016846Y018336D01*
X016846Y018336D01*
X016846Y017939D01*
X016846Y018079D02*
X016846Y018079D01*
X016846Y018198D02*
X016846Y018198D01*
X016846Y018316D02*
X016846Y018316D01*
X016846Y018435D02*
X016846Y018435D01*
X016846Y018553D02*
X016846Y018553D01*
X016846Y018672D02*
X016846Y018672D01*
X016602Y018672D02*
X016556Y018672D01*
X016556Y018790D02*
X019528Y018790D01*
X019528Y018672D02*
X017091Y018672D01*
X017124Y018553D02*
X020119Y018553D01*
X020088Y018565D02*
X020119Y018596D01*
X020119Y018322D01*
X020230Y018211D01*
X020256Y018211D01*
X020256Y016005D01*
X020230Y016005D01*
X020119Y015895D01*
X020119Y015463D01*
X020230Y015352D01*
X020662Y015352D01*
X020773Y015463D01*
X020773Y015895D01*
X020662Y016005D01*
X020636Y016005D01*
X020636Y018211D01*
X020662Y018211D01*
X020773Y018322D01*
X020773Y018754D01*
X020662Y018865D01*
X020230Y018865D01*
X020164Y018799D01*
X020164Y018933D01*
X020182Y018950D01*
X020230Y018902D01*
X020662Y018902D01*
X020773Y019013D01*
X020773Y019445D01*
X020662Y019555D01*
X020230Y019555D01*
X020119Y019445D01*
X020119Y019419D01*
X020113Y019419D01*
X019896Y019201D01*
X019604Y019201D01*
X019528Y019125D01*
X019528Y018641D01*
X019604Y018565D01*
X020088Y018565D01*
X020119Y018435D02*
X017124Y018435D01*
X017124Y018316D02*
X020125Y018316D01*
X020256Y018198D02*
X017124Y018198D01*
X017124Y018079D02*
X020256Y018079D01*
X020256Y017961D02*
X017044Y017961D01*
X016556Y018909D02*
X019528Y018909D01*
X019528Y019027D02*
X016556Y019027D01*
X016556Y019146D02*
X019549Y019146D01*
X019846Y018883D02*
X020191Y019229D01*
X020446Y019229D01*
X020773Y019264D02*
X022328Y019264D01*
X022435Y019146D02*
X020773Y019146D01*
X020773Y019027D02*
X022552Y019027D01*
X022222Y019383D02*
X020773Y019383D01*
X020716Y019501D02*
X022115Y019501D01*
X022008Y019620D02*
X016965Y019620D01*
X016976Y019738D02*
X021890Y019738D01*
X021752Y019857D02*
X016952Y019857D01*
X016882Y019975D02*
X021614Y019975D01*
X021449Y020094D02*
X016695Y020094D01*
X016498Y020094D02*
X015660Y020094D01*
X015703Y019975D02*
X016311Y019975D01*
X016240Y019857D02*
X015703Y019857D01*
X015703Y019620D02*
X016196Y019620D01*
X016216Y019738D02*
X015385Y019738D01*
X015308Y019738D02*
X008112Y019738D01*
X008012Y019620D02*
X014989Y019620D01*
X014997Y019501D02*
X007911Y019501D01*
X007823Y019383D02*
X015033Y019383D01*
X015019Y019264D02*
X007737Y019264D01*
X007651Y019146D02*
X008222Y019146D01*
X008237Y019161D02*
X008145Y019069D01*
X008095Y018949D01*
X008095Y018819D01*
X008145Y018699D01*
X008237Y018607D01*
X008357Y018557D01*
X008723Y018557D01*
X008844Y018607D01*
X008935Y018699D01*
X008985Y018819D01*
X008985Y018949D01*
X008935Y019069D01*
X008844Y019161D01*
X008723Y019211D01*
X008357Y019211D01*
X008237Y019161D01*
X008128Y019027D02*
X007565Y019027D01*
X007494Y018909D02*
X008095Y018909D01*
X008107Y018790D02*
X007482Y018790D01*
X007470Y018672D02*
X008172Y018672D01*
X008859Y019146D02*
X009769Y019146D01*
X009675Y019027D02*
X008953Y019027D01*
X008985Y018909D02*
X009643Y018909D01*
X009654Y018790D02*
X008973Y018790D01*
X008908Y018672D02*
X009719Y018672D01*
X009864Y018553D02*
X007458Y018553D01*
X007446Y018435D02*
X009745Y018435D01*
X009719Y018316D02*
X007446Y018316D01*
X007446Y018198D02*
X009749Y018198D01*
X009887Y018079D02*
X007446Y018079D01*
X007446Y017961D02*
X010131Y017961D01*
X010131Y017985D02*
X010131Y017985D01*
X010131Y018079D02*
X010068Y018079D01*
X009988Y017675D02*
X010546Y017675D01*
X010546Y017479D02*
X010541Y017473D01*
X010116Y017473D01*
X009996Y017353D01*
X009996Y017223D01*
X010135Y017085D01*
X010546Y017085D01*
X013698Y017085D01*
X014346Y017733D01*
X014346Y018336D01*
X014098Y018316D02*
X014094Y018316D01*
X014094Y018198D02*
X014098Y018198D01*
X014094Y018079D02*
X014098Y018079D01*
X014094Y018046D02*
X014094Y018626D01*
X014018Y018702D01*
X013674Y018702D01*
X013598Y018626D01*
X013598Y018046D01*
X013674Y017969D01*
X014018Y017969D01*
X014094Y018046D01*
X014156Y017961D02*
X011524Y017961D01*
X011524Y018079D02*
X013098Y018079D01*
X013098Y018046D02*
X013174Y017969D01*
X013518Y017969D01*
X013594Y018046D01*
X013594Y018626D01*
X013518Y018702D01*
X013174Y018702D01*
X013098Y018626D01*
X013098Y018046D01*
X013098Y018198D02*
X011524Y018198D01*
X011513Y018316D02*
X013098Y018316D01*
X013098Y018435D02*
X010992Y018435D01*
X010992Y018453D02*
X010546Y018453D01*
X010546Y018453D01*
X010992Y018453D01*
X010992Y018553D02*
X013098Y018553D01*
X013144Y018672D02*
X010957Y018672D01*
X010717Y018790D02*
X015057Y018790D01*
X015048Y018672D02*
X015144Y018672D01*
X015098Y018553D02*
X015094Y018553D01*
X015094Y018435D02*
X015098Y018435D01*
X015094Y018316D02*
X015098Y018316D01*
X015094Y018198D02*
X015098Y018198D01*
X015094Y018079D02*
X015098Y018079D01*
X014846Y017833D02*
X014846Y018336D01*
X014598Y018316D02*
X014594Y018316D01*
X014594Y018198D02*
X014598Y018198D01*
X014594Y018079D02*
X014598Y018079D01*
X014656Y017961D02*
X014536Y017961D01*
X014536Y017842D02*
X014587Y017842D01*
X014846Y017833D02*
X013901Y016888D01*
X011371Y016888D01*
X011206Y016723D01*
X011041Y016888D01*
X010546Y016888D01*
X010546Y017283D02*
X010906Y017283D01*
X011086Y017463D01*
X011206Y017463D01*
X011524Y017487D02*
X013831Y017487D01*
X013950Y017605D02*
X011524Y017605D01*
X011506Y017724D02*
X014068Y017724D01*
X014156Y017842D02*
X011524Y017842D01*
X011206Y018063D02*
X011126Y018143D01*
X010551Y018143D01*
X010546Y018148D01*
X010729Y018909D02*
X015019Y018909D01*
X015019Y019027D02*
X010697Y019027D01*
X010603Y019146D02*
X015019Y019146D01*
X014644Y018672D02*
X014548Y018672D01*
X014594Y018553D02*
X014598Y018553D01*
X014594Y018435D02*
X014598Y018435D01*
X014098Y018435D02*
X014094Y018435D01*
X014094Y018553D02*
X014098Y018553D01*
X014144Y018672D02*
X014048Y018672D01*
X013644Y018672D02*
X013548Y018672D01*
X013594Y018553D02*
X013598Y018553D01*
X013594Y018435D02*
X013598Y018435D01*
X013594Y018316D02*
X013598Y018316D01*
X013594Y018198D02*
X013598Y018198D01*
X013594Y018079D02*
X013598Y018079D01*
X013713Y017368D02*
X011524Y017368D01*
X008956Y015235D02*
X008873Y015235D01*
X013644Y010614D02*
X014765Y010614D01*
X014782Y010732D02*
X013753Y010732D01*
X013851Y010851D02*
X014796Y010851D01*
X014796Y010969D02*
X013880Y010969D01*
X013896Y011088D02*
X014796Y011088D01*
X014796Y011206D02*
X013896Y011206D01*
X013896Y011325D02*
X014796Y011325D01*
X014796Y011443D02*
X013896Y011443D01*
X013896Y011562D02*
X014796Y011562D01*
X014796Y011680D02*
X013896Y011680D01*
X013896Y011799D02*
X014796Y011799D01*
X014796Y011917D02*
X013896Y011917D01*
X013896Y012036D02*
X014796Y012036D01*
X014810Y012154D02*
X013896Y012154D01*
X013896Y012273D02*
X014834Y012273D01*
X016111Y011562D02*
X016996Y011562D01*
X016996Y011680D02*
X016116Y011680D01*
X016122Y011799D02*
X016996Y011799D01*
X016996Y011917D02*
X016127Y011917D01*
X016133Y012036D02*
X016996Y012036D01*
X016996Y012154D02*
X016138Y012154D01*
X016143Y012273D02*
X017055Y012273D01*
X016996Y011443D02*
X016106Y011443D01*
X016100Y011325D02*
X016996Y011325D01*
X016996Y011206D02*
X016096Y011206D01*
X016096Y011088D02*
X017068Y011088D01*
X017254Y010969D02*
X016096Y010969D01*
X016096Y010851D02*
X017440Y010851D01*
X017626Y010732D02*
X016096Y010732D01*
X016203Y010614D02*
X017813Y010614D01*
X017999Y010495D02*
X016385Y010495D01*
X016567Y010377D02*
X018185Y010377D01*
X018371Y010258D02*
X016749Y010258D01*
X016931Y010140D02*
X018557Y010140D01*
X018724Y010021D02*
X017113Y010021D01*
X017295Y009903D02*
X018872Y009903D01*
X018936Y009784D02*
X017477Y009784D01*
X017659Y009666D02*
X018983Y009666D01*
X018979Y009547D02*
X017841Y009547D01*
X018023Y009429D02*
X018955Y009429D01*
X018891Y009310D02*
X018205Y009310D01*
X018521Y009192D02*
X018803Y009192D01*
X014748Y010495D02*
X013536Y010495D01*
X013427Y010377D02*
X014645Y010377D01*
X014531Y010258D02*
X013318Y010258D01*
X013209Y010140D02*
X014418Y010140D01*
X014305Y010021D02*
X013100Y010021D01*
X012991Y009903D02*
X014192Y009903D01*
X014079Y009784D02*
X012882Y009784D01*
X012773Y009666D02*
X013966Y009666D01*
X013853Y009547D02*
X012664Y009547D01*
X012556Y009429D02*
X013740Y009429D01*
X013627Y009310D02*
X012447Y009310D01*
X012338Y009192D02*
X013513Y009192D01*
X013400Y009073D02*
X012229Y009073D01*
X012132Y008955D02*
X013287Y008955D01*
X013174Y008836D02*
X012073Y008836D01*
X012013Y008718D02*
X013061Y008718D01*
X012948Y008599D02*
X011996Y008599D01*
X011996Y008481D02*
X012835Y008481D01*
X012722Y008362D02*
X012067Y008362D01*
X012245Y008244D02*
X012547Y008244D01*
X015806Y013576D02*
X015886Y013576D01*
X015886Y013695D02*
X015806Y013695D01*
X015806Y013813D02*
X015886Y013813D01*
X015886Y014050D02*
X015806Y014050D01*
X015806Y014169D02*
X015886Y014169D01*
X015886Y014287D02*
X015806Y014287D01*
X016282Y014524D02*
X016489Y014524D01*
X016489Y014643D02*
X016464Y014643D01*
X016808Y014643D02*
X016885Y014643D01*
X016885Y014524D02*
X016808Y014524D01*
X016808Y014406D02*
X016885Y014406D01*
X017184Y014406D02*
X017192Y014406D01*
X017801Y014406D02*
X021620Y014406D01*
X021775Y014524D02*
X020279Y014524D01*
X020398Y014643D02*
X021929Y014643D01*
X022071Y014761D02*
X020762Y014761D01*
X020773Y014880D02*
X022176Y014880D01*
X022282Y014998D02*
X020773Y014998D01*
X020773Y015117D02*
X022387Y015117D01*
X022488Y015235D02*
X020742Y015235D01*
X020664Y015354D02*
X022583Y015354D01*
X023075Y015354D02*
X024834Y015354D01*
X024986Y015235D02*
X023342Y015235D01*
X023608Y015117D02*
X025139Y015117D01*
X025281Y014998D02*
X023854Y014998D01*
X024052Y014880D02*
X025400Y014880D01*
X025518Y014761D02*
X024249Y014761D01*
X024447Y014643D02*
X025637Y014643D01*
X025742Y014524D02*
X024618Y014524D01*
X024763Y014406D02*
X025845Y014406D01*
X025949Y014287D02*
X024908Y014287D01*
X025053Y014169D02*
X026043Y014169D01*
X026129Y014050D02*
X025158Y014050D01*
X025247Y013932D02*
X026215Y013932D01*
X026302Y013813D02*
X025336Y013813D01*
X025425Y013695D02*
X026388Y013695D01*
X026450Y013576D02*
X025514Y013576D01*
X025584Y013458D02*
X026509Y013458D01*
X026568Y013339D02*
X025643Y013339D01*
X025702Y013221D02*
X026627Y013221D01*
X026687Y013102D02*
X025762Y013102D01*
X025821Y012984D02*
X026696Y012984D01*
X026696Y012865D02*
X025903Y012865D01*
X026002Y012747D02*
X026667Y012747D01*
X026536Y012628D02*
X026116Y012628D01*
X024640Y015472D02*
X020773Y015472D01*
X020773Y015591D02*
X024433Y015591D01*
X024226Y015709D02*
X020773Y015709D01*
X020773Y015828D02*
X023985Y015828D01*
X023689Y015946D02*
X020721Y015946D01*
X020636Y016065D02*
X023392Y016065D01*
X023167Y016302D02*
X020636Y016302D01*
X020636Y016420D02*
X023238Y016420D01*
X023309Y016539D02*
X022720Y016539D01*
X022632Y016502D02*
X022882Y016606D01*
X023074Y016797D01*
X023177Y017048D01*
X023177Y017319D01*
X023074Y017569D01*
X022882Y017761D01*
X022632Y017865D01*
X022361Y017865D01*
X022110Y017761D01*
X021919Y017569D01*
X021815Y017319D01*
X021815Y017048D01*
X021919Y016797D01*
X022110Y016606D01*
X022361Y016502D01*
X022632Y016502D01*
X022934Y016657D02*
X023381Y016657D01*
X023442Y016776D02*
X023052Y016776D01*
X023114Y016894D02*
X023498Y016894D01*
X023518Y017013D02*
X023163Y017013D01*
X023177Y017131D02*
X023538Y017131D01*
X023535Y017250D02*
X023177Y017250D01*
X023157Y017368D02*
X023515Y017368D01*
X023494Y017487D02*
X023108Y017487D01*
X023037Y017605D02*
X023435Y017605D01*
X023376Y017724D02*
X022919Y017724D01*
X022685Y017842D02*
X023317Y017842D01*
X023244Y017961D02*
X020636Y017961D01*
X020636Y018079D02*
X023165Y018079D01*
X023137Y018198D02*
X020636Y018198D01*
X020767Y018316D02*
X023473Y018316D01*
X023809Y018435D02*
X020773Y018435D01*
X020773Y018553D02*
X024075Y018553D01*
X024292Y018672D02*
X020773Y018672D01*
X020737Y018790D02*
X024506Y018790D01*
X024678Y018909D02*
X020669Y018909D01*
X020446Y018538D02*
X020446Y015679D01*
X020171Y015946D02*
X017094Y015946D01*
X017081Y015828D02*
X020119Y015828D01*
X020119Y015709D02*
X017752Y015709D01*
X017823Y015591D02*
X020119Y015591D01*
X020119Y015472D02*
X017823Y015472D01*
X017823Y015354D02*
X020228Y015354D01*
X020151Y015235D02*
X017823Y015235D01*
X017823Y015117D02*
X020119Y015117D01*
X020119Y014998D02*
X017794Y014998D01*
X017240Y015709D02*
X017102Y015709D01*
X017094Y016065D02*
X020256Y016065D01*
X020256Y016183D02*
X017094Y016183D01*
X017094Y016302D02*
X020256Y016302D01*
X020256Y016420D02*
X017094Y016420D01*
X017036Y016539D02*
X020256Y016539D01*
X020256Y016657D02*
X016951Y016657D01*
X016098Y018079D02*
X016094Y018079D01*
X016094Y018198D02*
X016098Y018198D01*
X016094Y018316D02*
X016098Y018316D01*
X016094Y018435D02*
X016098Y018435D01*
X015846Y018336D02*
X015846Y018883D01*
X015598Y018435D02*
X015594Y018435D01*
X015594Y018316D02*
X015598Y018316D01*
X015594Y018198D02*
X015598Y018198D01*
X015594Y018079D02*
X015598Y018079D01*
X015346Y018336D02*
X015346Y019099D01*
X015673Y019264D02*
X016136Y019264D01*
X016136Y019383D02*
X015659Y019383D01*
X015695Y019501D02*
X016136Y019501D01*
X016556Y019264D02*
X019959Y019264D01*
X020077Y019383D02*
X016767Y019383D01*
X016912Y019501D02*
X020176Y019501D01*
X020164Y018909D02*
X020223Y018909D01*
X020636Y017842D02*
X022307Y017842D01*
X022073Y017724D02*
X020636Y017724D01*
X020636Y017605D02*
X021955Y017605D01*
X021885Y017487D02*
X020636Y017487D01*
X020636Y017368D02*
X021836Y017368D01*
X021815Y017250D02*
X020636Y017250D01*
X020636Y017131D02*
X021815Y017131D01*
X021829Y017013D02*
X020636Y017013D01*
X020636Y016894D02*
X021879Y016894D01*
X021940Y016776D02*
X020636Y016776D01*
X020636Y016657D02*
X022059Y016657D01*
X022272Y016539D02*
X020636Y016539D01*
X020636Y016183D02*
X023096Y016183D01*
X020660Y013813D02*
X016591Y013813D01*
X016541Y013695D02*
X020273Y013695D01*
X019087Y013576D02*
X016437Y013576D01*
X015308Y019806D02*
X014989Y019806D01*
X014989Y020006D01*
X015000Y020046D01*
X015021Y020083D01*
X015051Y020113D01*
X015088Y020134D01*
X015128Y020145D01*
X015308Y020145D01*
X015308Y019806D01*
X015308Y019857D02*
X015385Y019857D01*
X015385Y019975D02*
X015308Y019975D01*
X015308Y020094D02*
X015385Y020094D01*
X015032Y020094D02*
X008413Y020094D01*
X008313Y019975D02*
X014989Y019975D01*
X014989Y019857D02*
X008212Y019857D01*
X008525Y020212D02*
X021260Y020212D01*
X021061Y020331D02*
X008644Y020331D01*
X008762Y020449D02*
X020847Y020449D01*
X020581Y020568D02*
X008886Y020568D01*
X009021Y020686D02*
X020175Y020686D01*
X019145Y020805D02*
X009157Y020805D01*
X009300Y020923D02*
X018874Y020923D01*
X018779Y021042D02*
X009458Y021042D01*
X009616Y021160D02*
X018708Y021160D01*
X018648Y021279D02*
X009774Y021279D01*
X009974Y021397D02*
X018589Y021397D01*
X018530Y021516D02*
X010211Y021516D01*
X010448Y021634D02*
X018471Y021634D01*
X018377Y021753D02*
X010737Y021753D01*
X011063Y021871D02*
X018258Y021871D01*
X018127Y021990D02*
X013716Y021990D01*
X013884Y022108D02*
X014796Y022108D01*
X014748Y022227D02*
X013896Y022227D01*
X013896Y022345D02*
X014752Y022345D01*
X014756Y022464D02*
X013896Y022464D01*
X013896Y022582D02*
X014759Y022582D01*
X014763Y022701D02*
X013896Y022701D01*
X013896Y022819D02*
X014767Y022819D01*
X014771Y022938D02*
X013896Y022938D01*
X013896Y023056D02*
X014775Y023056D01*
X014779Y023175D02*
X013896Y023175D01*
X013896Y023293D02*
X014783Y023293D01*
X014787Y023412D02*
X013896Y023412D01*
X013850Y023530D02*
X014791Y023530D01*
X014795Y023649D02*
X013735Y023649D01*
X013620Y023767D02*
X014768Y023767D01*
X014729Y023886D02*
X013505Y023886D01*
X013390Y024004D02*
X014676Y024004D01*
X014560Y024123D02*
X013274Y024123D01*
X013159Y024241D02*
X014444Y024241D01*
X014329Y024360D02*
X013044Y024360D01*
X012929Y024478D02*
X014213Y024478D01*
X014097Y024597D02*
X012814Y024597D01*
X012698Y024715D02*
X013982Y024715D01*
X013866Y024834D02*
X012583Y024834D01*
X012468Y024952D02*
X013750Y024952D01*
X013635Y025071D02*
X012353Y025071D01*
X012238Y025189D02*
X013519Y025189D01*
X013403Y025308D02*
X012136Y025308D01*
X012085Y025426D02*
X013287Y025426D01*
X013172Y025545D02*
X012034Y025545D01*
X011996Y025663D02*
X013056Y025663D01*
X012940Y025782D02*
X011996Y025782D01*
X012013Y025900D02*
X012825Y025900D01*
X012709Y026019D02*
X012132Y026019D01*
X012096Y023767D02*
X009062Y023767D01*
X009181Y023649D02*
X012096Y023649D01*
X012096Y023530D02*
X009299Y023530D01*
X009418Y023412D02*
X012096Y023412D01*
X012096Y023293D02*
X009523Y023293D01*
X009625Y023175D02*
X012096Y023175D01*
X012096Y023056D02*
X009726Y023056D01*
X009985Y022938D02*
X012096Y022938D01*
X012096Y022819D02*
X011234Y022819D01*
X011246Y022701D02*
X012096Y022701D01*
X012096Y022582D02*
X011246Y022582D01*
X011246Y022464D02*
X012096Y022464D01*
X012096Y022345D02*
X011246Y022345D01*
X011246Y022227D02*
X012110Y022227D01*
X012140Y022108D02*
X011246Y022108D01*
X011246Y021990D02*
X012333Y021990D01*
X010194Y023886D02*
X008944Y023886D01*
X008825Y024004D02*
X010075Y024004D01*
X009957Y024123D02*
X008707Y024123D01*
X008588Y024241D02*
X009838Y024241D01*
X009720Y024360D02*
X008470Y024360D01*
X008351Y024478D02*
X009601Y024478D01*
X009483Y024597D02*
X008233Y024597D01*
X008114Y024715D02*
X009364Y024715D01*
X009246Y024834D02*
X008008Y024834D01*
X007919Y024952D02*
X009127Y024952D01*
X009009Y025071D02*
X007896Y025071D01*
X007896Y025189D02*
X008890Y025189D01*
X008772Y025308D02*
X007933Y025308D01*
X007993Y025426D02*
X008653Y025426D01*
X016107Y023412D02*
X017298Y023412D01*
X017112Y023293D02*
X016096Y023293D01*
X016096Y023175D02*
X017042Y023175D01*
X016994Y023056D02*
X016096Y023056D01*
X016096Y022938D02*
X016985Y022938D01*
X016976Y022819D02*
X016096Y022819D01*
X016096Y022701D02*
X016967Y022701D01*
X016958Y022582D02*
X016096Y022582D01*
X016096Y022464D02*
X016949Y022464D01*
X016946Y022345D02*
X016096Y022345D01*
X016096Y022227D02*
X016946Y022227D01*
X016971Y022108D02*
X016096Y022108D01*
X016124Y023530D02*
X017484Y023530D01*
X017672Y023649D02*
X016141Y023649D01*
X016275Y023767D02*
X017866Y023767D01*
X018061Y023886D02*
X016457Y023886D01*
X016639Y024004D02*
X018256Y024004D01*
X018450Y024123D02*
X016821Y024123D01*
X017003Y024241D02*
X018645Y024241D01*
X018816Y024360D02*
X017185Y024360D01*
X017367Y024478D02*
X018905Y024478D01*
X018957Y024597D02*
X017549Y024597D01*
X017731Y024715D02*
X018977Y024715D01*
X018996Y024834D02*
X017913Y024834D01*
X018095Y024952D02*
X018937Y024952D01*
X018821Y025071D02*
X018277Y025071D01*
X024132Y019501D02*
X025448Y019501D01*
X025314Y019383D02*
X023895Y019383D01*
X023641Y019264D02*
X025181Y019264D01*
X025020Y019146D02*
X023374Y019146D01*
X023081Y019027D02*
X024849Y019027D01*
X024369Y019620D02*
X025581Y019620D01*
X025686Y019738D02*
X024551Y019738D01*
X024670Y019857D02*
X025788Y019857D01*
X025889Y019975D02*
X024788Y019975D01*
X024907Y020094D02*
X025993Y020094D01*
X026097Y020212D02*
X025020Y020212D01*
X025119Y020331D02*
X026200Y020331D01*
X026287Y020449D02*
X025218Y020449D01*
X025317Y020568D02*
X026362Y020568D01*
X026436Y020686D02*
X025415Y020686D01*
X025508Y020805D02*
X026505Y020805D01*
X026556Y020923D02*
X025572Y020923D01*
X025635Y021042D02*
X026607Y021042D01*
X026652Y021160D02*
X025699Y021160D01*
X025763Y021279D02*
X026675Y021279D01*
X026696Y021397D02*
X025827Y021397D01*
X025929Y021516D02*
X026696Y021516D01*
X026629Y021634D02*
X026047Y021634D01*
X026200Y021753D02*
X026457Y021753D01*
D21*
X020446Y014988D02*
X020157Y014699D01*
X017496Y014699D01*
X017496Y015368D02*
X016846Y015368D01*
X016846Y016131D01*
X016346Y018336D02*
X016346Y019473D01*
X016596Y019723D01*
X011156Y015463D02*
X011156Y015023D01*
X010916Y014783D01*
X010511Y014783D01*
X011156Y015463D02*
X010706Y015914D01*
X010546Y015914D01*
D22*
X011206Y016213D03*
X011206Y016723D03*
X011206Y017463D03*
X011206Y018063D03*
X019846Y018883D03*
D23*
X015846Y018883D03*
M02*
