G75*
%MOIN*%
%OFA0B0*%
%FSLAX24Y24*%
%IPPOS*%
%LPD*%
%AMOC8*
5,1,8,0,0,1.08239X$1,22.5*
%
%ADD10C,0.0394*%
%ADD11C,0.0600*%
%ADD12C,0.0120*%
%ADD13R,0.0376X0.0376*%
%ADD14R,0.0400X0.0400*%
D10*
X008422Y015483D02*
X008658Y015483D01*
X009970Y015483D02*
X010402Y015483D01*
X010402Y018884D02*
X009970Y018884D01*
X008658Y018884D02*
X008422Y018884D01*
D11*
X015546Y014933D02*
X016146Y014933D01*
X016146Y013933D02*
X015546Y013933D01*
D12*
X007896Y009033D02*
X007946Y008883D01*
X008096Y008783D01*
X008296Y008733D01*
X008496Y008783D01*
X008696Y008883D01*
X010196Y010383D01*
X010446Y010433D01*
X012096Y010433D01*
X012146Y010783D01*
X012146Y012183D01*
X012246Y012283D01*
X013746Y012283D01*
X013896Y012233D01*
X013896Y010983D01*
X013846Y010783D01*
X012146Y008933D01*
X011996Y008633D01*
X011996Y008383D01*
X012146Y008233D01*
X012396Y008133D01*
X012646Y008233D01*
X014746Y010433D01*
X014796Y010783D01*
X014796Y012033D01*
X014846Y012283D01*
X015646Y012233D01*
X016146Y012283D01*
X016096Y011183D01*
X016096Y010633D01*
X018246Y009233D01*
X018546Y009133D01*
X018796Y009133D01*
X018946Y009333D01*
X018996Y009583D01*
X018896Y009833D01*
X018646Y010033D01*
X016996Y011083D01*
X016996Y012183D01*
X017146Y012283D01*
X017996Y012283D01*
X018196Y012333D01*
X018846Y013333D01*
X019096Y013533D01*
X019596Y013533D01*
X019996Y013583D01*
X020446Y013683D01*
X020846Y013833D01*
X021096Y013983D01*
X021396Y014183D01*
X022046Y014683D01*
X022446Y015133D01*
X022646Y015383D01*
X022896Y015383D01*
X023796Y014983D01*
X024546Y014533D01*
X025096Y014083D01*
X025546Y013483D01*
X025846Y012883D01*
X026096Y012583D01*
X026296Y012533D01*
X026446Y012533D01*
X026646Y012633D01*
X026696Y012783D01*
X026696Y013033D01*
X026396Y013633D01*
X025996Y014183D01*
X025646Y014583D01*
X025246Y014983D01*
X024796Y015333D01*
X024096Y015733D01*
X023096Y016133D01*
X023396Y016633D01*
X023496Y016833D01*
X023546Y017133D01*
X023496Y017433D01*
X023296Y017833D01*
X023096Y018133D01*
X023946Y018433D01*
X024496Y018733D01*
X025146Y019183D01*
X025596Y019583D01*
X025896Y019933D01*
X026246Y020333D01*
X026496Y020733D01*
X026646Y021083D01*
X026696Y021333D01*
X026696Y021483D01*
X026596Y021633D01*
X026396Y021733D01*
X026246Y021733D01*
X026096Y021633D01*
X025846Y021383D01*
X025496Y020733D01*
X024996Y020133D01*
X024496Y019633D01*
X023796Y019283D01*
X023346Y019083D01*
X022846Y018883D01*
X022646Y018883D01*
X022446Y019083D01*
X021996Y019583D01*
X021896Y019683D01*
X021546Y019983D01*
X021146Y020233D01*
X020696Y020483D01*
X020196Y020633D01*
X019846Y020683D01*
X019296Y020733D01*
X018946Y020783D01*
X018746Y021033D01*
X018446Y021633D01*
X018146Y021933D01*
X017996Y021983D01*
X016996Y021983D01*
X016946Y022133D01*
X016946Y022383D01*
X016996Y023033D01*
X017096Y023233D01*
X017646Y023583D01*
X018796Y024283D01*
X018946Y024483D01*
X018996Y024783D01*
X018896Y024983D01*
X018696Y025083D01*
X018446Y025083D01*
X018296Y025033D01*
X016146Y023633D01*
X016096Y023283D01*
X016096Y021983D01*
X014846Y021983D01*
X014746Y022133D01*
X014796Y023633D01*
X014696Y023933D01*
X012646Y026033D01*
X012446Y026083D01*
X012246Y026083D01*
X011996Y025833D01*
X011996Y025583D01*
X012146Y025233D01*
X013896Y023433D01*
X013896Y022083D01*
X013846Y021983D01*
X013696Y021933D01*
X012346Y021933D01*
X012146Y022033D01*
X012096Y022233D01*
X012096Y023783D01*
X010246Y023783D01*
X008546Y025483D01*
X008246Y025483D01*
X007996Y025383D01*
X007896Y025183D01*
X007896Y024933D01*
X008046Y024733D01*
X009446Y023333D01*
X009746Y022983D01*
X009996Y022883D01*
X011196Y022883D01*
X011246Y022733D01*
X011246Y021933D01*
X011096Y021833D01*
X010546Y021633D01*
X009846Y021283D01*
X009246Y020883D01*
X008446Y020083D01*
X007896Y019433D01*
X007496Y018883D01*
X007446Y018383D01*
X007446Y015433D01*
X007746Y015083D01*
X008046Y014633D01*
X008346Y014283D01*
X008596Y013983D01*
X009046Y013533D01*
X009746Y013033D01*
X010196Y012783D01*
X010646Y012583D01*
X010946Y012483D01*
X011196Y012383D01*
X011246Y012233D01*
X011246Y012033D01*
X011196Y011533D01*
X011196Y011383D01*
X010996Y011333D01*
X010296Y011383D01*
X009846Y011283D01*
X009546Y011083D01*
X007996Y009433D01*
X007896Y009233D01*
X007896Y009033D01*
X007896Y009073D02*
X008886Y009073D01*
X008768Y008955D02*
X007922Y008955D01*
X008017Y008836D02*
X008602Y008836D01*
X009005Y009192D02*
X007896Y009192D01*
X007935Y009310D02*
X009123Y009310D01*
X009242Y009429D02*
X007994Y009429D01*
X008103Y009547D02*
X009360Y009547D01*
X009479Y009666D02*
X008215Y009666D01*
X008326Y009784D02*
X009597Y009784D01*
X009716Y009903D02*
X008437Y009903D01*
X008549Y010021D02*
X009834Y010021D01*
X009953Y010140D02*
X008660Y010140D01*
X008771Y010258D02*
X010071Y010258D01*
X010190Y010377D02*
X008883Y010377D01*
X008994Y010495D02*
X012105Y010495D01*
X012122Y010614D02*
X009105Y010614D01*
X009216Y010732D02*
X012139Y010732D01*
X012146Y010851D02*
X009328Y010851D01*
X009439Y010969D02*
X012146Y010969D01*
X012146Y011088D02*
X009553Y011088D01*
X009731Y011206D02*
X012146Y011206D01*
X012146Y011325D02*
X010033Y011325D01*
X011196Y011443D02*
X012146Y011443D01*
X012146Y011562D02*
X011199Y011562D01*
X011211Y011680D02*
X012146Y011680D01*
X012146Y011799D02*
X011223Y011799D01*
X011235Y011917D02*
X012146Y011917D01*
X012146Y012036D02*
X011246Y012036D01*
X011246Y012154D02*
X012146Y012154D01*
X012236Y012273D02*
X011233Y012273D01*
X011176Y012391D02*
X018234Y012391D01*
X018311Y012510D02*
X010867Y012510D01*
X010545Y012628D02*
X018388Y012628D01*
X018465Y012747D02*
X010278Y012747D01*
X010049Y012865D02*
X018542Y012865D01*
X018619Y012984D02*
X009835Y012984D01*
X009650Y013102D02*
X018696Y013102D01*
X018773Y013221D02*
X009484Y013221D01*
X009318Y013339D02*
X018854Y013339D01*
X019002Y013458D02*
X009152Y013458D01*
X009003Y013576D02*
X015255Y013576D01*
X015247Y013582D02*
X015305Y013540D01*
X015370Y013507D01*
X015438Y013485D01*
X015510Y013473D01*
X015806Y013473D01*
X015806Y013893D01*
X015886Y013893D01*
X015886Y013473D01*
X016182Y013473D01*
X016254Y013485D01*
X016323Y013507D01*
X016387Y013540D01*
X016446Y013582D01*
X016497Y013634D01*
X016540Y013692D01*
X016572Y013757D01*
X016595Y013826D01*
X016606Y013893D01*
X015886Y013893D01*
X015886Y013973D01*
X016606Y013973D01*
X016595Y014041D01*
X016572Y014110D01*
X016540Y014174D01*
X016497Y014233D01*
X016446Y014284D01*
X016387Y014327D01*
X016323Y014360D01*
X016254Y014382D01*
X016182Y014393D01*
X015886Y014393D01*
X015886Y013973D01*
X015806Y013973D01*
X015806Y013893D01*
X015087Y013893D01*
X015098Y013826D01*
X015120Y013757D01*
X015153Y013692D01*
X015195Y013634D01*
X015247Y013582D01*
X015151Y013695D02*
X008885Y013695D01*
X008766Y013813D02*
X015101Y013813D01*
X015087Y013973D02*
X015806Y013973D01*
X015806Y014393D01*
X015510Y014393D01*
X015438Y014382D01*
X015370Y014360D01*
X015305Y014327D01*
X015247Y014284D01*
X015195Y014233D01*
X015153Y014174D01*
X015120Y014110D01*
X015098Y014041D01*
X015087Y013973D01*
X015101Y014050D02*
X008540Y014050D01*
X008442Y014169D02*
X015150Y014169D01*
X015251Y014287D02*
X008343Y014287D01*
X008241Y014406D02*
X021685Y014406D01*
X021531Y014287D02*
X016442Y014287D01*
X016542Y014169D02*
X021374Y014169D01*
X021197Y014050D02*
X016592Y014050D01*
X016591Y013813D02*
X020793Y013813D01*
X021010Y013932D02*
X015886Y013932D01*
X015806Y013932D02*
X008648Y013932D01*
X008140Y014524D02*
X015410Y014524D01*
X015461Y014503D02*
X016232Y014503D01*
X016390Y014569D01*
X016511Y014690D01*
X016576Y014848D01*
X016576Y015019D01*
X016511Y015177D01*
X016390Y015298D01*
X016232Y015363D01*
X016036Y015363D01*
X016036Y018553D01*
X016100Y018553D01*
X016176Y018629D01*
X016176Y018693D01*
X019528Y018693D01*
X019528Y018641D01*
X019604Y018565D01*
X020088Y018565D01*
X020164Y018641D01*
X020164Y019125D01*
X020088Y019201D01*
X019604Y019201D01*
X019528Y019125D01*
X019528Y019073D01*
X016176Y019073D01*
X016176Y019137D01*
X016100Y019213D01*
X015592Y019213D01*
X015516Y019137D01*
X015516Y018629D01*
X015592Y018553D01*
X015656Y018553D01*
X015656Y015363D01*
X015461Y015363D01*
X015303Y015298D01*
X015182Y015177D01*
X015116Y015019D01*
X015116Y014848D01*
X015182Y014690D01*
X015303Y014569D01*
X015461Y014503D01*
X015229Y014643D02*
X008040Y014643D01*
X007961Y014761D02*
X015152Y014761D01*
X015116Y014880D02*
X007882Y014880D01*
X007803Y014998D02*
X015116Y014998D01*
X015157Y015117D02*
X007717Y015117D01*
X007616Y015235D02*
X008207Y015235D01*
X008237Y015205D02*
X008357Y015156D01*
X008723Y015156D01*
X008844Y015205D01*
X008935Y015297D01*
X008985Y015418D01*
X008985Y015548D01*
X008935Y015668D01*
X008844Y015760D01*
X008723Y015809D01*
X008357Y015809D01*
X008237Y015760D01*
X008145Y015668D01*
X008095Y015548D01*
X008095Y015418D01*
X008145Y015297D01*
X008237Y015205D01*
X008122Y015354D02*
X007514Y015354D01*
X007446Y015472D02*
X008095Y015472D01*
X008113Y015591D02*
X007446Y015591D01*
X007446Y015709D02*
X008187Y015709D01*
X008894Y015709D02*
X009734Y015709D01*
X009692Y015668D02*
X009643Y015548D01*
X009643Y015418D01*
X009692Y015297D01*
X009784Y015205D01*
X009904Y015156D01*
X010467Y015156D01*
X010588Y015205D01*
X010680Y015297D01*
X010729Y015418D01*
X010729Y015548D01*
X010680Y015668D01*
X010588Y015760D01*
X010467Y015809D01*
X010081Y015809D01*
X010123Y015827D01*
X010196Y015899D01*
X010235Y015994D01*
X010235Y016097D01*
X010196Y016192D01*
X010123Y016264D01*
X010029Y016303D01*
X009926Y016303D01*
X009831Y016264D01*
X009759Y016192D01*
X009719Y016097D01*
X009719Y015994D01*
X009759Y015899D01*
X009831Y015827D01*
X009889Y015803D01*
X009784Y015760D01*
X009692Y015668D01*
X009660Y015591D02*
X008967Y015591D01*
X008985Y015472D02*
X009643Y015472D01*
X009669Y015354D02*
X008959Y015354D01*
X008873Y015235D02*
X009754Y015235D01*
X009830Y015828D02*
X007446Y015828D01*
X007446Y015946D02*
X009739Y015946D01*
X009719Y016065D02*
X007446Y016065D01*
X007446Y016183D02*
X009755Y016183D01*
X009922Y016302D02*
X007446Y016302D01*
X007446Y016420D02*
X010888Y016420D01*
X010888Y016455D02*
X010888Y015971D01*
X010964Y015895D01*
X011448Y015895D01*
X011524Y015971D01*
X011524Y016083D01*
X011685Y016243D01*
X011796Y016355D01*
X011796Y018082D01*
X011685Y018193D01*
X011625Y018253D01*
X011524Y018253D01*
X011524Y018305D01*
X011448Y018381D01*
X010964Y018381D01*
X010888Y018305D01*
X010888Y017821D01*
X010946Y017763D01*
X010888Y017705D01*
X010888Y017221D01*
X010964Y017145D01*
X011016Y017145D01*
X011016Y017041D01*
X010964Y017041D01*
X010888Y016965D01*
X010888Y016481D01*
X010901Y016468D01*
X010888Y016455D01*
X010888Y016539D02*
X007446Y016539D01*
X007446Y016657D02*
X010888Y016657D01*
X010888Y016776D02*
X007446Y016776D01*
X007446Y016894D02*
X010888Y016894D01*
X010936Y017013D02*
X007446Y017013D01*
X007446Y017131D02*
X011016Y017131D01*
X010888Y017250D02*
X007446Y017250D01*
X007446Y017368D02*
X010888Y017368D01*
X010888Y017487D02*
X007446Y017487D01*
X007446Y017605D02*
X010888Y017605D01*
X010907Y017724D02*
X007446Y017724D01*
X007446Y017842D02*
X010888Y017842D01*
X010888Y017961D02*
X007446Y017961D01*
X007446Y018079D02*
X009887Y018079D01*
X009926Y018063D02*
X010029Y018063D01*
X010123Y018102D01*
X010196Y018175D01*
X010235Y018270D01*
X010235Y018372D01*
X010196Y018467D01*
X010123Y018540D01*
X010081Y018557D01*
X010467Y018557D01*
X010588Y018607D01*
X010680Y018699D01*
X010729Y018819D01*
X010729Y018949D01*
X010680Y019069D01*
X010588Y019161D01*
X010467Y019211D01*
X009904Y019211D01*
X009784Y019161D01*
X009692Y019069D01*
X009643Y018949D01*
X009643Y018819D01*
X009692Y018699D01*
X009784Y018607D01*
X009889Y018564D01*
X009831Y018540D01*
X009759Y018467D01*
X009719Y018372D01*
X009719Y018270D01*
X009759Y018175D01*
X009831Y018102D01*
X009926Y018063D01*
X010068Y018079D02*
X010888Y018079D01*
X010888Y018198D02*
X010205Y018198D01*
X010235Y018316D02*
X010899Y018316D01*
X011206Y018063D02*
X011546Y018063D01*
X011606Y018003D01*
X011606Y016433D01*
X011386Y016213D01*
X011206Y016213D01*
X010888Y016183D02*
X010199Y016183D01*
X010235Y016065D02*
X010888Y016065D01*
X010913Y015946D02*
X010215Y015946D01*
X010124Y015828D02*
X015656Y015828D01*
X015656Y015946D02*
X011499Y015946D01*
X011524Y016065D02*
X015656Y016065D01*
X015656Y016183D02*
X011625Y016183D01*
X011743Y016302D02*
X015656Y016302D01*
X015656Y016420D02*
X011796Y016420D01*
X011796Y016539D02*
X015656Y016539D01*
X015656Y016657D02*
X011796Y016657D01*
X011796Y016776D02*
X015656Y016776D01*
X015656Y016894D02*
X011796Y016894D01*
X011796Y017013D02*
X015656Y017013D01*
X015656Y017131D02*
X011796Y017131D01*
X011796Y017250D02*
X015656Y017250D01*
X015656Y017368D02*
X011796Y017368D01*
X011796Y017487D02*
X015656Y017487D01*
X015656Y017605D02*
X011796Y017605D01*
X011796Y017724D02*
X015656Y017724D01*
X015656Y017842D02*
X011796Y017842D01*
X011796Y017961D02*
X015656Y017961D01*
X015656Y018079D02*
X011796Y018079D01*
X011680Y018198D02*
X015656Y018198D01*
X015656Y018316D02*
X011513Y018316D01*
X011206Y017463D02*
X011206Y016723D01*
X010888Y016302D02*
X010033Y016302D01*
X010638Y015709D02*
X015656Y015709D01*
X015656Y015591D02*
X010711Y015591D01*
X010729Y015472D02*
X015656Y015472D01*
X015438Y015354D02*
X010703Y015354D01*
X010618Y015235D02*
X015240Y015235D01*
X015846Y014933D02*
X015846Y018883D01*
X019846Y018883D01*
X019528Y018672D02*
X016176Y018672D01*
X016100Y018553D02*
X024166Y018553D01*
X023949Y018435D02*
X016036Y018435D01*
X016036Y018316D02*
X023615Y018316D01*
X023279Y018198D02*
X016036Y018198D01*
X016036Y018079D02*
X023132Y018079D01*
X023211Y017961D02*
X016036Y017961D01*
X016036Y017842D02*
X022307Y017842D01*
X022361Y017865D02*
X022110Y017761D01*
X021919Y017569D01*
X021815Y017319D01*
X021815Y017048D01*
X021919Y016797D01*
X022110Y016606D01*
X022361Y016502D01*
X022632Y016502D01*
X022882Y016606D01*
X023074Y016797D01*
X023177Y017048D01*
X023177Y017319D01*
X023074Y017569D01*
X022882Y017761D01*
X022632Y017865D01*
X022361Y017865D01*
X022073Y017724D02*
X016036Y017724D01*
X016036Y017605D02*
X021955Y017605D01*
X021885Y017487D02*
X016036Y017487D01*
X016036Y017368D02*
X021836Y017368D01*
X021815Y017250D02*
X016036Y017250D01*
X016036Y017131D02*
X021815Y017131D01*
X021829Y017013D02*
X016036Y017013D01*
X016036Y016894D02*
X021879Y016894D01*
X021940Y016776D02*
X016036Y016776D01*
X016036Y016657D02*
X022059Y016657D01*
X022272Y016539D02*
X016036Y016539D01*
X016036Y016420D02*
X023268Y016420D01*
X023197Y016302D02*
X016036Y016302D01*
X016036Y016183D02*
X023126Y016183D01*
X023267Y016065D02*
X016036Y016065D01*
X016036Y015946D02*
X023564Y015946D01*
X023860Y015828D02*
X016036Y015828D01*
X016036Y015709D02*
X024138Y015709D01*
X024346Y015591D02*
X016036Y015591D01*
X016036Y015472D02*
X024553Y015472D01*
X024760Y015354D02*
X022963Y015354D01*
X023229Y015235D02*
X024922Y015235D01*
X025075Y015117D02*
X023496Y015117D01*
X023762Y014998D02*
X025227Y014998D01*
X025350Y014880D02*
X023969Y014880D01*
X024166Y014761D02*
X025468Y014761D01*
X025587Y014643D02*
X024364Y014643D01*
X024557Y014524D02*
X025698Y014524D01*
X025801Y014406D02*
X024702Y014406D01*
X024847Y014287D02*
X025905Y014287D01*
X026007Y014169D02*
X024992Y014169D01*
X025121Y014050D02*
X026093Y014050D01*
X026179Y013932D02*
X025210Y013932D01*
X025299Y013813D02*
X026265Y013813D01*
X026351Y013695D02*
X025388Y013695D01*
X025476Y013576D02*
X026425Y013576D01*
X026484Y013458D02*
X025559Y013458D01*
X025618Y013339D02*
X026543Y013339D01*
X026602Y013221D02*
X025677Y013221D01*
X025737Y013102D02*
X026662Y013102D01*
X026696Y012984D02*
X025796Y012984D01*
X025861Y012865D02*
X026696Y012865D01*
X026684Y012747D02*
X025960Y012747D01*
X026059Y012628D02*
X026636Y012628D01*
X023339Y016539D02*
X022720Y016539D01*
X022934Y016657D02*
X023408Y016657D01*
X023467Y016776D02*
X023052Y016776D01*
X023114Y016894D02*
X023506Y016894D01*
X023526Y017013D02*
X023163Y017013D01*
X023177Y017131D02*
X023546Y017131D01*
X023527Y017250D02*
X023177Y017250D01*
X023157Y017368D02*
X023507Y017368D01*
X023469Y017487D02*
X023108Y017487D01*
X023037Y017605D02*
X023410Y017605D01*
X023351Y017724D02*
X022919Y017724D01*
X022685Y017842D02*
X023290Y017842D01*
X022910Y018909D02*
X024750Y018909D01*
X024921Y019027D02*
X023206Y019027D01*
X023487Y019146D02*
X025092Y019146D01*
X025237Y019264D02*
X023754Y019264D01*
X023995Y019383D02*
X025371Y019383D01*
X025504Y019501D02*
X024232Y019501D01*
X024469Y019620D02*
X025627Y019620D01*
X025729Y019738D02*
X024601Y019738D01*
X024720Y019857D02*
X025831Y019857D01*
X025933Y019975D02*
X024838Y019975D01*
X024957Y020094D02*
X026037Y020094D01*
X026140Y020212D02*
X025062Y020212D01*
X025161Y020331D02*
X026244Y020331D01*
X026319Y020449D02*
X025260Y020449D01*
X025358Y020568D02*
X026393Y020568D01*
X026467Y020686D02*
X025457Y020686D01*
X025535Y020805D02*
X026527Y020805D01*
X026578Y020923D02*
X025599Y020923D01*
X025662Y021042D02*
X026628Y021042D01*
X026662Y021160D02*
X025726Y021160D01*
X025790Y021279D02*
X026685Y021279D01*
X026696Y021397D02*
X025860Y021397D01*
X025979Y021516D02*
X026674Y021516D01*
X026594Y021634D02*
X026098Y021634D01*
X024579Y018790D02*
X020164Y018790D01*
X020164Y018672D02*
X024383Y018672D01*
X022621Y018909D02*
X020164Y018909D01*
X020164Y019027D02*
X022502Y019027D01*
X022390Y019146D02*
X020144Y019146D01*
X019549Y019146D02*
X016167Y019146D01*
X015592Y018553D02*
X010091Y018553D01*
X010209Y018435D02*
X015656Y018435D01*
X015516Y018672D02*
X010652Y018672D01*
X010717Y018790D02*
X015516Y018790D01*
X015516Y018909D02*
X010729Y018909D01*
X010697Y019027D02*
X015516Y019027D01*
X015525Y019146D02*
X010603Y019146D01*
X009769Y019146D02*
X008859Y019146D01*
X008844Y019161D02*
X008723Y019211D01*
X008357Y019211D01*
X008237Y019161D01*
X008145Y019069D01*
X008095Y018949D01*
X008095Y018819D01*
X008145Y018699D01*
X008237Y018607D01*
X008357Y018557D01*
X008723Y018557D01*
X008844Y018607D01*
X008935Y018699D01*
X008985Y018819D01*
X008985Y018949D01*
X008935Y019069D01*
X008844Y019161D01*
X008953Y019027D02*
X009675Y019027D01*
X009643Y018909D02*
X008985Y018909D01*
X008973Y018790D02*
X009654Y018790D01*
X009719Y018672D02*
X008908Y018672D01*
X008172Y018672D02*
X007475Y018672D01*
X007487Y018790D02*
X008107Y018790D01*
X008095Y018909D02*
X007515Y018909D01*
X007601Y019027D02*
X008128Y019027D01*
X008222Y019146D02*
X007687Y019146D01*
X007773Y019264D02*
X022283Y019264D01*
X022177Y019383D02*
X007859Y019383D01*
X007954Y019501D02*
X022070Y019501D01*
X021960Y019620D02*
X008054Y019620D01*
X008154Y019738D02*
X021832Y019738D01*
X021694Y019857D02*
X008255Y019857D01*
X008355Y019975D02*
X021555Y019975D01*
X021369Y020094D02*
X008457Y020094D01*
X008575Y020212D02*
X021180Y020212D01*
X020971Y020331D02*
X008694Y020331D01*
X008812Y020449D02*
X020757Y020449D01*
X020414Y020568D02*
X008931Y020568D01*
X009049Y020686D02*
X019813Y020686D01*
X018929Y020805D02*
X009168Y020805D01*
X009306Y020923D02*
X018834Y020923D01*
X018742Y021042D02*
X009484Y021042D01*
X009662Y021160D02*
X018683Y021160D01*
X018623Y021279D02*
X009839Y021279D01*
X010074Y021397D02*
X018564Y021397D01*
X018505Y021516D02*
X010311Y021516D01*
X010549Y021634D02*
X018445Y021634D01*
X018327Y021753D02*
X010875Y021753D01*
X011153Y021871D02*
X018208Y021871D01*
X016994Y021990D02*
X016096Y021990D01*
X016096Y022108D02*
X016955Y022108D01*
X016946Y022227D02*
X016096Y022227D01*
X016096Y022345D02*
X016946Y022345D01*
X016952Y022464D02*
X016096Y022464D01*
X016096Y022582D02*
X016961Y022582D01*
X016971Y022701D02*
X016096Y022701D01*
X016096Y022819D02*
X016980Y022819D01*
X016989Y022938D02*
X016096Y022938D01*
X016096Y023056D02*
X017008Y023056D01*
X017067Y023175D02*
X016096Y023175D01*
X016098Y023293D02*
X017191Y023293D01*
X017377Y023412D02*
X016115Y023412D01*
X016131Y023530D02*
X017563Y023530D01*
X017754Y023649D02*
X016170Y023649D01*
X016352Y023767D02*
X017949Y023767D01*
X018143Y023886D02*
X016534Y023886D01*
X016716Y024004D02*
X018338Y024004D01*
X018533Y024123D02*
X016898Y024123D01*
X017080Y024241D02*
X018727Y024241D01*
X018854Y024360D02*
X017262Y024360D01*
X017444Y024478D02*
X018942Y024478D01*
X018965Y024597D02*
X017626Y024597D01*
X017808Y024715D02*
X018985Y024715D01*
X018971Y024834D02*
X017990Y024834D01*
X018172Y024952D02*
X018912Y024952D01*
X018721Y025071D02*
X018409Y025071D01*
X014791Y023649D02*
X013687Y023649D01*
X013802Y023530D02*
X014793Y023530D01*
X014789Y023412D02*
X013896Y023412D01*
X013896Y023293D02*
X014785Y023293D01*
X014781Y023175D02*
X013896Y023175D01*
X013896Y023056D02*
X014777Y023056D01*
X014773Y022938D02*
X013896Y022938D01*
X013896Y022819D02*
X014769Y022819D01*
X014765Y022701D02*
X013896Y022701D01*
X013896Y022582D02*
X014761Y022582D01*
X014757Y022464D02*
X013896Y022464D01*
X013896Y022345D02*
X014753Y022345D01*
X014749Y022227D02*
X013896Y022227D01*
X013896Y022108D02*
X014763Y022108D01*
X014842Y021990D02*
X013849Y021990D01*
X012233Y021990D02*
X011246Y021990D01*
X011246Y022108D02*
X012127Y022108D01*
X012098Y022227D02*
X011246Y022227D01*
X011246Y022345D02*
X012096Y022345D01*
X012096Y022464D02*
X011246Y022464D01*
X011246Y022582D02*
X012096Y022582D01*
X012096Y022701D02*
X011246Y022701D01*
X011218Y022819D02*
X012096Y022819D01*
X012096Y022938D02*
X009860Y022938D01*
X009684Y023056D02*
X012096Y023056D01*
X012096Y023175D02*
X009582Y023175D01*
X009480Y023293D02*
X012096Y023293D01*
X012096Y023412D02*
X009368Y023412D01*
X009249Y023530D02*
X012096Y023530D01*
X012096Y023649D02*
X009131Y023649D01*
X009012Y023767D02*
X012096Y023767D01*
X012880Y024478D02*
X014164Y024478D01*
X014280Y024360D02*
X012995Y024360D01*
X013111Y024241D02*
X014395Y024241D01*
X014511Y024123D02*
X013226Y024123D01*
X013341Y024004D02*
X014627Y024004D01*
X014712Y023886D02*
X013456Y023886D01*
X013571Y023767D02*
X014752Y023767D01*
X014048Y024597D02*
X012765Y024597D01*
X012650Y024715D02*
X013933Y024715D01*
X013817Y024834D02*
X012535Y024834D01*
X012419Y024952D02*
X013701Y024952D01*
X013586Y025071D02*
X012304Y025071D01*
X012189Y025189D02*
X013470Y025189D01*
X013354Y025308D02*
X012114Y025308D01*
X012063Y025426D02*
X013239Y025426D01*
X013123Y025545D02*
X012013Y025545D01*
X011996Y025663D02*
X013007Y025663D01*
X012892Y025782D02*
X011996Y025782D01*
X012063Y025900D02*
X012776Y025900D01*
X012660Y026019D02*
X012182Y026019D01*
X010144Y023886D02*
X008894Y023886D01*
X008775Y024004D02*
X010025Y024004D01*
X009907Y024123D02*
X008657Y024123D01*
X008538Y024241D02*
X009788Y024241D01*
X009670Y024360D02*
X008420Y024360D01*
X008301Y024478D02*
X009551Y024478D01*
X009433Y024597D02*
X008183Y024597D01*
X008064Y024715D02*
X009314Y024715D01*
X009196Y024834D02*
X007971Y024834D01*
X007896Y024952D02*
X009077Y024952D01*
X008959Y025071D02*
X007896Y025071D01*
X007899Y025189D02*
X008840Y025189D01*
X008722Y025308D02*
X007958Y025308D01*
X008104Y025426D02*
X008603Y025426D01*
X007463Y018553D02*
X009864Y018553D01*
X009745Y018435D02*
X007451Y018435D01*
X007446Y018316D02*
X009719Y018316D01*
X009749Y018198D02*
X007446Y018198D01*
X013778Y012273D02*
X014844Y012273D01*
X014820Y012154D02*
X013896Y012154D01*
X013896Y012036D02*
X014797Y012036D01*
X014796Y011917D02*
X013896Y011917D01*
X013896Y011799D02*
X014796Y011799D01*
X014796Y011680D02*
X013896Y011680D01*
X013896Y011562D02*
X014796Y011562D01*
X014796Y011443D02*
X013896Y011443D01*
X013896Y011325D02*
X014796Y011325D01*
X014796Y011206D02*
X013896Y011206D01*
X013896Y011088D02*
X014796Y011088D01*
X014796Y010969D02*
X013893Y010969D01*
X013863Y010851D02*
X014796Y010851D01*
X014789Y010732D02*
X013799Y010732D01*
X013690Y010614D02*
X014772Y010614D01*
X014755Y010495D02*
X013582Y010495D01*
X013473Y010377D02*
X014692Y010377D01*
X014579Y010258D02*
X013364Y010258D01*
X013255Y010140D02*
X014466Y010140D01*
X014353Y010021D02*
X013146Y010021D01*
X013037Y009903D02*
X014240Y009903D01*
X014127Y009784D02*
X012928Y009784D01*
X012819Y009666D02*
X014014Y009666D01*
X013900Y009547D02*
X012710Y009547D01*
X012602Y009429D02*
X013787Y009429D01*
X013674Y009310D02*
X012493Y009310D01*
X012384Y009192D02*
X013561Y009192D01*
X013448Y009073D02*
X012275Y009073D01*
X012166Y008955D02*
X013335Y008955D01*
X013222Y008836D02*
X012098Y008836D01*
X012038Y008718D02*
X013109Y008718D01*
X012996Y008599D02*
X011996Y008599D01*
X011996Y008481D02*
X012882Y008481D01*
X012769Y008362D02*
X012017Y008362D01*
X012136Y008244D02*
X012656Y008244D01*
X016096Y010732D02*
X017548Y010732D01*
X017734Y010614D02*
X016126Y010614D01*
X016308Y010495D02*
X017920Y010495D01*
X018106Y010377D02*
X016490Y010377D01*
X016672Y010258D02*
X018293Y010258D01*
X018479Y010140D02*
X016854Y010140D01*
X017036Y010021D02*
X018661Y010021D01*
X018809Y009903D02*
X017218Y009903D01*
X017400Y009784D02*
X018916Y009784D01*
X018963Y009666D02*
X017582Y009666D01*
X017764Y009547D02*
X018989Y009547D01*
X018965Y009429D02*
X017946Y009429D01*
X018128Y009310D02*
X018929Y009310D01*
X018840Y009192D02*
X018371Y009192D01*
X017362Y010851D02*
X016096Y010851D01*
X016096Y010969D02*
X017175Y010969D01*
X016996Y011088D02*
X016096Y011088D01*
X016097Y011206D02*
X016996Y011206D01*
X016996Y011325D02*
X016103Y011325D01*
X016108Y011443D02*
X016996Y011443D01*
X016996Y011562D02*
X016113Y011562D01*
X016119Y011680D02*
X016996Y011680D01*
X016996Y011799D02*
X016124Y011799D01*
X016130Y011917D02*
X016996Y011917D01*
X016996Y012036D02*
X016135Y012036D01*
X016140Y012154D02*
X016996Y012154D01*
X017130Y012273D02*
X016146Y012273D01*
X016041Y012273D02*
X015014Y012273D01*
X015806Y013576D02*
X015886Y013576D01*
X015886Y013695D02*
X015806Y013695D01*
X015806Y013813D02*
X015886Y013813D01*
X015886Y014050D02*
X015806Y014050D01*
X015806Y014169D02*
X015886Y014169D01*
X015886Y014287D02*
X015806Y014287D01*
X016282Y014524D02*
X021840Y014524D01*
X021994Y014643D02*
X016464Y014643D01*
X016540Y014761D02*
X022116Y014761D01*
X022221Y014880D02*
X016576Y014880D01*
X016576Y014998D02*
X022326Y014998D01*
X022432Y015117D02*
X016536Y015117D01*
X016452Y015235D02*
X022528Y015235D01*
X022623Y015354D02*
X016255Y015354D01*
X016541Y013695D02*
X020477Y013695D01*
X019940Y013576D02*
X016437Y013576D01*
D13*
X011206Y016213D03*
X011206Y016723D03*
X011206Y017463D03*
X011206Y018063D03*
X019846Y018883D03*
D14*
X015846Y018883D03*
M02*
