G75*
%MOIN*%
%OFA0B0*%
%FSLAX24Y24*%
%IPPOS*%
%LPD*%
%AMOC8*
5,1,8,0,0,1.08239X$1,22.5*
%
%ADD10C,0.0000*%
%ADD11C,0.0004*%
D10*
X008033Y008879D02*
X008253Y008774D01*
X008459Y008812D01*
X008647Y008939D01*
X008818Y009101D01*
X009768Y010051D01*
X009979Y010286D01*
X010219Y010481D01*
X010499Y010521D01*
X010789Y010509D01*
X011440Y010521D01*
X012091Y010509D01*
X012154Y010820D01*
X012158Y011169D01*
X012126Y011847D01*
X012110Y012086D01*
X012118Y012215D01*
X012161Y012305D01*
X012297Y012343D01*
X012443Y012339D01*
X013182Y012339D01*
X013531Y012362D01*
X013720Y012357D01*
X013858Y012310D01*
X013904Y012200D01*
X013904Y012075D01*
X013904Y011477D01*
X013920Y011151D01*
X013876Y010836D01*
X013727Y010654D01*
X013555Y010488D01*
X012637Y009506D01*
X012195Y009068D01*
X012019Y008804D01*
X011978Y008669D01*
X011983Y008535D01*
X012079Y008347D01*
X012247Y008227D01*
X012448Y008193D01*
X012648Y008262D01*
X012883Y008485D01*
X013094Y008731D01*
X014221Y009927D01*
X014532Y010211D01*
X014680Y010371D01*
X014769Y010541D01*
X014812Y010848D01*
X014813Y011175D01*
X014792Y011817D01*
X014784Y012055D01*
X014822Y012282D01*
X014883Y012326D01*
X014979Y012343D01*
X015162Y012341D01*
X015626Y012311D01*
X016086Y012357D01*
X016104Y012339D01*
X016080Y011760D01*
X016099Y011179D01*
X016079Y010934D01*
X016116Y010697D01*
X016305Y010534D01*
X016530Y010407D01*
X017596Y009713D01*
X018130Y009339D01*
X018434Y009198D01*
X018581Y009175D01*
X018719Y009196D01*
X018858Y009270D01*
X018948Y009365D01*
X018995Y009477D01*
X019003Y009598D01*
X018918Y009840D01*
X018729Y010037D01*
X017469Y010853D01*
X017222Y010994D01*
X017098Y011077D01*
X017013Y011172D01*
X016970Y011433D01*
X016984Y011706D01*
X016964Y012017D01*
X016972Y012186D01*
X017020Y012303D01*
X017154Y012344D01*
X017300Y012339D01*
X017769Y012309D01*
X018022Y012320D01*
X018201Y012389D01*
X018408Y012657D01*
X018579Y012982D01*
X018758Y013297D01*
X018991Y013535D01*
X019230Y013583D01*
X019483Y013571D01*
X019900Y013607D01*
X020310Y013694D01*
X020757Y013851D01*
X021189Y014074D01*
X021590Y014349D01*
X021947Y014662D01*
X022436Y015193D01*
X022531Y015326D01*
X022650Y015429D01*
X022841Y015419D01*
X023030Y015358D01*
X023759Y015078D01*
X024437Y014677D01*
X025036Y014168D01*
X025530Y013564D01*
X025875Y012924D01*
X026111Y012653D01*
X026253Y012587D01*
X026413Y012590D01*
X026608Y012686D01*
X026699Y012835D01*
X026707Y013023D01*
X026652Y013232D01*
X026437Y013655D01*
X026222Y013974D01*
X025791Y014513D01*
X025306Y014992D01*
X024765Y015409D01*
X024170Y015759D01*
X023628Y015976D01*
X023091Y016193D01*
X023395Y016660D01*
X023519Y016938D01*
X023569Y017179D01*
X023518Y017419D01*
X023394Y017697D01*
X023091Y018164D01*
X023580Y018360D01*
X024076Y018552D01*
X024698Y018903D01*
X025270Y019326D01*
X025782Y019820D01*
X026223Y020382D01*
X026434Y020702D01*
X026650Y021126D01*
X026707Y021336D01*
X026701Y021524D01*
X026610Y021673D01*
X026413Y021767D01*
X026255Y021768D01*
X026114Y021701D01*
X025877Y021429D01*
X025530Y020793D01*
X025031Y020191D01*
X024436Y019684D01*
X023763Y019282D01*
X023032Y018997D01*
X022842Y018936D01*
X022649Y018926D01*
X022530Y019030D01*
X022436Y019165D01*
X021929Y019713D01*
X021554Y020034D01*
X021139Y020307D01*
X020693Y020526D01*
X020227Y020686D01*
X019840Y020762D01*
X019448Y020787D01*
X019216Y020778D01*
X018999Y020830D01*
X018770Y021079D01*
X018592Y021391D01*
X018418Y021707D01*
X018202Y021970D01*
X018020Y022038D01*
X017768Y022048D01*
X017300Y022019D01*
X017154Y022014D01*
X017020Y022055D01*
X016972Y022172D01*
X016964Y022341D01*
X016984Y022652D01*
X016970Y022924D01*
X017013Y023186D01*
X017109Y023294D01*
X017249Y023390D01*
X017531Y023548D01*
X018750Y024335D01*
X018931Y024532D01*
X019004Y024772D01*
X018941Y024998D01*
X018850Y025089D01*
X018714Y025157D01*
X018537Y025175D01*
X018376Y025125D01*
X018077Y024938D01*
X016682Y024045D01*
X016365Y023867D01*
X016206Y023755D01*
X016107Y023634D01*
X016074Y023384D01*
X016086Y023127D01*
X016072Y022571D01*
X016104Y022019D01*
X016104Y022019D01*
X016086Y022001D01*
X015621Y022029D01*
X015153Y022019D01*
X014973Y022011D01*
X014880Y022024D01*
X014812Y022065D01*
X014776Y022162D01*
X014770Y022290D01*
X014784Y022529D01*
X014800Y023143D01*
X014778Y023756D01*
X014704Y023944D01*
X014560Y024114D01*
X014239Y024413D01*
X013094Y025626D01*
X012891Y025862D01*
X012666Y026078D01*
X012471Y026154D01*
X012268Y026137D01*
X012094Y026034D01*
X011990Y025851D01*
X011979Y025711D01*
X012014Y025573D01*
X012179Y025309D01*
X012619Y024870D01*
X013553Y023868D01*
X013727Y023704D01*
X013876Y023521D01*
X013914Y023375D01*
X013920Y023206D01*
X013904Y022881D01*
X013904Y022283D01*
X013904Y022157D01*
X013858Y022047D01*
X013713Y021999D01*
X013514Y021994D01*
X013147Y022019D01*
X012443Y022019D01*
X012297Y022014D01*
X012163Y022055D01*
X012120Y022147D01*
X012111Y022274D01*
X012126Y022512D01*
X012114Y023164D01*
X012126Y023814D01*
X012091Y023849D01*
X011414Y023828D01*
X010737Y023842D01*
X010483Y023833D01*
X010237Y023864D01*
X009996Y024055D01*
X009786Y024289D01*
X008818Y025257D01*
X008642Y025422D01*
X008447Y025548D01*
X008237Y025580D01*
X008016Y025460D01*
X007922Y025327D01*
X007886Y025175D01*
X007905Y025019D01*
X007978Y024875D01*
X008287Y024510D01*
X008636Y024163D01*
X009346Y023497D01*
X009607Y023202D01*
X009756Y023059D01*
X009909Y022969D01*
X010128Y022929D01*
X010370Y022927D01*
X010842Y022951D01*
X011010Y022959D01*
X011172Y022930D01*
X011227Y022828D01*
X011229Y022705D01*
X011240Y022354D01*
X011224Y022006D01*
X011155Y021902D01*
X011020Y021837D01*
X010732Y021758D01*
X010043Y021449D01*
X009406Y021043D01*
X008795Y020528D01*
X008234Y019965D01*
X007773Y019379D01*
X007442Y018937D01*
X007389Y018527D01*
X007373Y018076D01*
X007382Y017291D01*
X007384Y016440D01*
X007378Y015968D01*
X007377Y015676D01*
X007376Y015461D01*
X007751Y015025D01*
X008294Y014386D01*
X008927Y013707D01*
X009284Y013402D01*
X009674Y013125D01*
X010200Y012824D01*
X010758Y012590D01*
X011005Y012527D01*
X011132Y012478D01*
X011209Y012408D01*
X011248Y012247D01*
X011251Y012054D01*
X011229Y011688D01*
X011231Y011560D01*
X011193Y011442D01*
X011025Y011398D01*
X010842Y011406D01*
X010387Y011425D01*
X009937Y011396D01*
X009785Y011318D01*
X009637Y011182D01*
X009381Y010896D01*
X008637Y010208D01*
X008273Y009846D01*
X007964Y009462D01*
X007898Y009315D01*
X007888Y009157D01*
X007932Y009006D01*
X008033Y008879D01*
D11*
X008420Y015364D02*
X008664Y015364D01*
X008664Y015365D02*
X008684Y015367D01*
X008704Y015372D01*
X008723Y015381D01*
X008740Y015393D01*
X008754Y015407D01*
X008766Y015424D01*
X008775Y015443D01*
X008780Y015463D01*
X008782Y015483D01*
X008780Y015503D01*
X008775Y015523D01*
X008766Y015542D01*
X008754Y015559D01*
X008740Y015573D01*
X008723Y015585D01*
X008704Y015594D01*
X008684Y015599D01*
X008664Y015601D01*
X008420Y015601D01*
X008400Y015599D01*
X008380Y015594D01*
X008361Y015585D01*
X008344Y015573D01*
X008330Y015559D01*
X008318Y015542D01*
X008309Y015523D01*
X008304Y015503D01*
X008302Y015483D01*
X008304Y015463D01*
X008309Y015443D01*
X008318Y015424D01*
X008330Y015407D01*
X008344Y015393D01*
X008361Y015381D01*
X008380Y015372D01*
X008400Y015367D01*
X008420Y015365D01*
X009969Y015364D02*
X010402Y015364D01*
X010402Y015365D02*
X010422Y015367D01*
X010442Y015372D01*
X010461Y015381D01*
X010478Y015393D01*
X010492Y015407D01*
X010504Y015424D01*
X010513Y015443D01*
X010518Y015463D01*
X010520Y015483D01*
X010518Y015503D01*
X010513Y015523D01*
X010504Y015542D01*
X010492Y015559D01*
X010478Y015573D01*
X010461Y015585D01*
X010442Y015594D01*
X010422Y015599D01*
X010402Y015601D01*
X009969Y015601D01*
X009949Y015599D01*
X009929Y015594D01*
X009910Y015585D01*
X009893Y015573D01*
X009879Y015559D01*
X009867Y015542D01*
X009858Y015523D01*
X009853Y015503D01*
X009851Y015483D01*
X009853Y015463D01*
X009858Y015443D01*
X009867Y015424D01*
X009879Y015407D01*
X009893Y015393D01*
X009910Y015381D01*
X009929Y015372D01*
X009949Y015367D01*
X009969Y015365D01*
X009969Y018766D02*
X010402Y018766D01*
X010422Y018768D01*
X010442Y018773D01*
X010461Y018782D01*
X010478Y018794D01*
X010492Y018808D01*
X010504Y018825D01*
X010513Y018844D01*
X010518Y018864D01*
X010520Y018884D01*
X010518Y018904D01*
X010513Y018924D01*
X010504Y018943D01*
X010492Y018960D01*
X010478Y018974D01*
X010461Y018986D01*
X010442Y018995D01*
X010422Y019000D01*
X010402Y019002D01*
X009969Y019002D01*
X009949Y019000D01*
X009929Y018995D01*
X009910Y018986D01*
X009893Y018974D01*
X009879Y018960D01*
X009867Y018943D01*
X009858Y018924D01*
X009853Y018904D01*
X009851Y018884D01*
X009853Y018864D01*
X009858Y018844D01*
X009867Y018825D01*
X009879Y018808D01*
X009893Y018794D01*
X009910Y018782D01*
X009929Y018773D01*
X009949Y018768D01*
X009969Y018766D01*
X008664Y018766D02*
X008420Y018766D01*
X008400Y018768D01*
X008380Y018773D01*
X008361Y018782D01*
X008344Y018794D01*
X008330Y018808D01*
X008318Y018825D01*
X008309Y018844D01*
X008304Y018864D01*
X008302Y018884D01*
X008304Y018904D01*
X008309Y018924D01*
X008318Y018943D01*
X008330Y018960D01*
X008344Y018974D01*
X008361Y018986D01*
X008380Y018995D01*
X008400Y019000D01*
X008420Y019002D01*
X008664Y019002D01*
X008684Y019000D01*
X008704Y018995D01*
X008723Y018986D01*
X008740Y018974D01*
X008754Y018960D01*
X008766Y018943D01*
X008775Y018924D01*
X008780Y018904D01*
X008782Y018884D01*
X008780Y018864D01*
X008775Y018844D01*
X008766Y018825D01*
X008754Y018808D01*
X008740Y018794D01*
X008723Y018782D01*
X008704Y018773D01*
X008684Y018768D01*
X008664Y018766D01*
M02*
