<?xml version="1.0" encoding="UTF-8" standalone="no"?>
<svg
   xmlns:dc="http://purl.org/dc/elements/1.1/"
   xmlns:cc="http://creativecommons.org/ns#"
   xmlns:rdf="http://www.w3.org/1999/02/22-rdf-syntax-ns#"
   xmlns:svg="http://www.w3.org/2000/svg"
   xmlns="http://www.w3.org/2000/svg"
   xmlns:sodipodi="http://sodipodi.sourceforge.net/DTD/sodipodi-0.dtd"
   xmlns:inkscape="http://www.inkscape.org/namespaces/inkscape"
   width="210mm"
   height="297mm"
   viewBox="0 0 210 297"
   version="1.1"
   id="svg8"
   sodipodi:docname="deBug.svg"
   inkscape:version="1.0.1 (3bc2e813f5, 2020-09-07)">
  <defs
     id="defs2" />
  <sodipodi:namedview
     id="base"
     pagecolor="#ffffff"
     bordercolor="#666666"
     borderopacity="1.0"
     inkscape:pageopacity="0.0"
     inkscape:pageshadow="2"
     inkscape:zoom="0.49497475"
     inkscape:cx="285.65526"
     inkscape:cy="333.97874"
     inkscape:document-units="mm"
     inkscape:current-layer="layer1"
     inkscape:document-rotation="0"
     showgrid="false"
     inkscape:window-width="1600"
     inkscape:window-height="838"
     inkscape:window-x="-8"
     inkscape:window-y="-8"
     inkscape:window-maximized="1" />
  <metadata
     id="metadata5">
    <rdf:RDF>
      <cc:Work
         rdf:about="">
        <dc:format>image/svg+xml</dc:format>
        <dc:type
           rdf:resource="http://purl.org/dc/dcmitype/StillImage" />
        <dc:title></dc:title>
      </cc:Work>
    </rdf:RDF>
  </metadata>
  <g
     inkscape:label="Layer 1"
     inkscape:groupmode="layer"
     id="layer1">
    <path
       style="fill:#000000;fill-opacity:1;stroke-width:0.999997"
       d="m 7.4929993,52.998348 c -0.2219909,-0.329787 -0.2365967,-0.915751 -0.031734,-1.274481 0.076596,-0.13415 1.2270145,-1.308271 2.8604681,-2.919403 l 2.732333,-2.69501 1.935358,0.01259 1.935356,0.01259 0.0106,-1.51792 0.01059,-1.517917 -0.324055,-0.07561 C 15.221523,42.696352 13.479601,41.85597 11.875151,40.733127 11.248683,40.294711 10.993186,40.06222 9.7164464,38.768796 8.563444,37.600738 8.1699285,37.164757 7.785643,36.62964 7.0838423,35.652377 6.4569232,34.706378 6.4561926,34.623525 c -3.461e-4,-0.03958 1.9579386,-0.0581 4.3517464,-0.04107 l 4.352374,0.03081 1.26475,1.490761 1.26475,1.490766 2.423089,0.01794 c 2.310594,0.01714 2.425578,0.02635 2.476479,0.1988 0.175493,0.594558 0.745607,1.261391 1.366402,1.598216 1.342803,0.728563 2.702407,0.476541 3.764087,-0.697735 0.496188,-0.548806 0.703169,-1.099459 0.711495,-1.892894 0.02209,-2.080765 -2.035842,-3.545252 -4.001878,-2.848174 -0.697301,0.247233 -1.321312,0.797898 -1.677863,1.480642 l -0.244845,0.468827 -2.005025,-0.01399 -2.005015,-0.01399 -0.618773,-0.733473 c -0.340321,-0.403487 -0.910935,-1.074368 -1.268031,-1.490927 l -0.649273,-0.757388 -5.294767,-0.03779 -5.2947656,-0.03779 -0.5716358,-1.165375 c -0.3143992,-0.640995 -0.5729159,-1.21927 -0.5744808,-1.285094 -0.00196,-0.09257 1.4618587,-0.101712 6.4633452,-0.04034 3.556407,0.04363 6.497559,0.118466 6.535887,0.166298 0.03836,0.04782 0.131287,0.228375 0.206575,0.401215 0.185429,0.42569 0.820278,1.071628 1.28366,1.306083 1.181626,0.597855 2.575761,0.378759 3.52097,-0.553344 1.432196,-1.412338 1.074579,-3.799993 -0.714695,-4.771662 -0.728907,-0.395836 -1.537216,-0.457865 -2.3853,-0.183052 -0.434349,0.140752 -0.54799,0.21226 -1.00534,0.632645 -0.435625,0.400411 -0.545464,0.538301 -0.708008,0.888467 l -0.192368,0.414505 -6.4703,-0.04489 c -3.5586615,-0.02469 -6.4701863,-0.06096 -6.4700485,-0.08059 4.687e-4,-0.06031 1.0948654,-2.200883 1.1562069,-2.261375 0.031616,-0.03121 2.186581,-0.04208 4.7887306,-0.02412 l 4.731174,0.03263 1.057197,-1.548462 1.057198,-1.548458 1.447602,-0.0043 c 0.796176,-0.0022 1.46961,0.0038 1.496524,0.01381 0.02689,0.01 0.161185,0.231859 0.298396,0.493152 0.206727,0.393685 0.328941,0.545865 0.713345,0.888278 0.791956,0.705438 1.695368,0.947337 2.65551,0.711047 0.644242,-0.158551 0.974388,-0.366199 1.530789,-0.962822 0.382174,-0.409794 0.504416,-0.588833 0.624603,-0.914778 0.28389,-0.769915 0.246625,-1.556947 -0.110594,-2.33568 -0.161182,-0.351364 -0.27623,-0.500418 -0.678192,-0.878606 -0.414598,-0.390084 -0.555379,-0.48148 -0.980836,-0.636789 -0.696941,-0.254413 -1.358893,-0.263834 -2.050324,-0.02917 -0.53418,0.181288 -0.594288,0.219891 -1.073626,0.689495 -0.422969,0.414379 -0.533877,0.562247 -0.664128,0.885446 l -0.156368,0.387993 -1.97118,-0.01284 -1.971181,-0.01285 -1.011639,1.497564 c -0.556399,0.823659 -1.027363,1.513073 -1.046587,1.532031 -0.0508,0.05011 -7.6026988,-0.01301 -7.602345,-0.06353 1.622e-4,-0.02341 0.2603982,-0.409246 0.5783024,-0.857429 1.7382007,-2.450525 3.6608276,-4.338961 5.7417436,-5.639643 1.166686,-0.729237 2.7694,-1.423622 3.874584,-1.678688 l 0.409837,-0.09459 0.01058,-1.51642 0.01058,-1.516421 -1.93535,-0.01444 -1.935339,-0.01443 -2.694422,-2.732916 C 8.8779545,8.6159205 7.8467696,7.5316756 7.7614065,7.3781714 7.4799688,6.8721048 7.6853562,6.0889212 8.1802406,5.7810341 8.4988941,5.5827867 8.6970989,5.5400787 9.0600681,5.5914493 l 0.3237665,0.045855 2.4998554,2.4843855 2.499855,2.4843852 2.647125,0.01075 2.647115,0.01075 -0.01115,2.560808 c -0.0064,1.408441 -0.01046,2.582248 -0.0097,2.608451 0.002,0.06454 5.005114,0.09753 5.0701,0.03347 0.02832,-0.0279 0.05601,-0.987375 0.06148,-2.132165 l 0.0103,-2.081432 L 22.13598,8.7518731 C 19.182785,5.5746548 19.271454,5.6926752 19.345134,5.0373116 c 0.06472,-0.5757848 0.641621,-1.0709235 1.22191,-1.0487512 0.54957,0.021001 0.617185,0.078103 2.512394,2.1218001 0.961188,1.0365049 2.298626,2.4768589 2.97208,3.2007906 l 1.224475,1.3162369 -0.01734,2.585493 c -0.0095,1.422022 0.0047,2.607883 0.0317,2.635248 0.02701,0.02736 0.874662,0.05596 1.883726,0.06356 l 1.834667,0.01382 0.01818,-2.36134 0.01818,-2.361341 1.812264,-1.1487 c 5.510783,-3.4930027 4.872939,-3.1219969 5.342022,-3.1072396 0.605423,0.019043 1.11189,0.4750062 1.187641,1.0691939 0.05118,0.4016202 -0.05044,0.694784 -0.339739,0.9801034 -0.129327,0.1275239 -1.379343,0.9558939 -2.77783,1.8408233 -1.39849,0.884928 -2.583749,1.64944 -2.633924,1.698918 -0.05054,0.04981 -0.09588,0.829755 -0.101658,1.7475 l -0.01074,1.657541 1.733893,0.01318 c 1.669951,0.01267 1.737844,0.02029 1.840786,0.206306 0.05879,0.106227 0.585358,0.89924 1.170155,1.762256 l 1.06328,1.569117 1.067441,0.02349 c 1.239714,0.02728 1.979526,0.144066 2.941398,0.464373 1.97608,0.658043 3.808648,1.95724 5.344544,3.789011 0.411432,0.490683 0.80952,0.960208 0.884656,1.043392 0.123305,0.136518 0.202214,0.134014 0.810664,-0.02573 1.292269,-0.33926 2.896072,-1.063446 4.17899,-1.886995 1.670005,-1.072039 3.279347,-2.881202 4.310759,-4.846013 0.208894,-0.397921 0.482293,-0.825383 0.607546,-0.949916 0.578935,-0.575583 1.546471,-0.298338 1.804705,0.51713 0.11596,0.366179 0.0814,0.543181 -0.229736,1.177139 -1.249019,2.544893 -3.315346,4.813577 -5.735759,6.297496 -1.087756,0.666886 -2.609046,1.352849 -3.7752,1.702272 -0.32776,0.0982 -0.593821,0.195966 -0.591259,0.217238 0.0021,0.02129 0.168117,0.349221 0.367862,0.72877 0.199735,0.37955 0.501857,1.002572 0.671355,1.384492 0.298172,0.671833 0.304244,0.705425 0.186404,1.033578 -0.136963,0.381458 -1.12209,2.335018 -1.232269,2.443671 -0.101388,0.09999 -0.01186,0.165771 0.366594,0.269623 0.620859,0.170332 1.854303,0.682952 2.719053,1.130024 1.743062,0.901166 3.357634,2.160123 4.556293,3.552752 0.990455,1.150726 1.553947,1.997804 2.221929,3.340139 0.28626,0.575267 0.364233,0.809171 0.35588,1.067669 -0.03142,0.971964 -1.239337,1.453586 -1.90517,0.759627 -0.108268,-0.112859 -0.352996,-0.522934 -0.543812,-0.911285 -0.66735,-1.358169 -1.779287,-2.861944 -2.77486,-3.752678 -1.692117,-1.513923 -3.603388,-2.565061 -5.73973,-3.156658 l -0.617836,-0.171085 -0.154456,0.210252 c -1.945584,2.648353 -4.615706,4.45202 -7.37644,4.982782 -0.345447,0.06641 -1.144311,0.125579 -1.775248,0.131482 l -1.147157,0.0106 -1.129713,1.653355 c -0.621341,0.909349 -1.139786,1.69473 -1.152093,1.745295 -0.0133,0.05483 -0.727368,0.08744 -1.769249,0.08082 l -1.746865,-0.01108 -0.01241,1.657524 c -0.007,0.911642 0.02111,1.692042 0.06254,1.734227 0.04143,0.04218 0.390067,0.282861 0.774858,0.534832 0.384803,0.251974 1.52545,0.998467 2.534778,1.658881 1.009327,0.660408 1.939455,1.306528 2.066949,1.435818 0.464402,0.470929 0.46669,1.101471 0.0059,1.626668 -0.343535,0.391558 -0.752161,0.523897 -1.210332,0.391972 -0.307231,-0.08845 -2.231816,-1.297801 -4.716595,-2.963745 -0.629752,-0.422222 -1.34553,-0.895823 -1.59061,-1.05244 l -0.445619,-0.284766 0.0098,-2.364529 0.0098,-2.364525 -1.27801,0.0071 c -0.70291,0.004 -1.307666,-0.02281 -1.343916,-0.05957 -0.03627,-0.03676 -0.14287,-0.04238 -0.236943,-0.01253 -0.09408,0.02987 -0.325115,0.04275 -0.513426,0.0286 l -0.342369,-0.02573 -0.01449,0.463502 c -0.0077,0.25493 -0.03009,1.421809 -0.04907,2.593073 -0.01901,1.171269 -0.05998,2.182159 -0.09099,2.246428 -0.03101,0.06426 -0.65631,0.738461 -1.389599,1.498207 -0.733296,0.759745 -2.050234,2.134871 -2.926528,3.055824 -0.876303,0.920966 -1.676387,1.730839 -1.777978,1.799727 -0.297849,0.201951 -0.888205,0.205083 -1.235442,0.007 -0.554465,-0.317012 -0.810979,-1.084726 -0.53488,-1.600847 0.0593,-0.110897 0.869682,-1.000768 1.800795,-1.977499 0.931123,-0.976732 2.137321,-2.242661 2.680458,-2.813168 l 0.987513,-1.037286 0.01197,-2.074491 c 0.0063,-1.14097 -0.0096,-2.09633 -0.03589,-2.123034 -0.08036,-0.08148 -5.064684,-0.08744 -5.068662,-0.006 -0.002,0.0418 -0.01269,1.216346 -0.02325,2.610103 l -0.01937,2.534101 -2.688254,-0.01566 -2.688255,-0.01566 -2.410596,2.377135 C 8.9875135,53.614241 8.9927402,53.610035 8.4373741,53.558317 8.2813044,53.543749 8.046567,53.470399 7.9157306,53.395221 7.6697876,53.253924 7.6568835,53.241809 7.4932259,52.998672 Z M 24.093718,37.206611 c -0.314143,-1.043969 0.556899,-1.971616 1.647775,-1.754848 0.387181,0.07694 0.436835,0.10685 0.730511,0.440064 0.265122,0.300818 0.320915,0.412034 0.351791,0.701319 0.04594,0.430776 -0.120834,0.949077 -0.389964,1.211606 -0.382194,0.37282 -1.091475,0.51017 -1.548611,0.299889 -0.305684,-0.140614 -0.697278,-0.584905 -0.791502,-0.89803 z M 18.82841,30.135466 c -0.409355,-0.971751 0.2722,-1.992693 1.325354,-1.98534 0.781872,0.0054 1.354384,0.601826 1.348776,1.404993 -0.0048,0.683028 -0.37788,1.162987 -1.047058,1.346894 -0.622266,0.171016 -1.383127,-0.18744 -1.627072,-0.766547 z m 2.915002,-7.215818 c -0.267479,-0.587221 -0.124292,-1.172564 0.397675,-1.625605 0.405583,-0.352028 0.827322,-0.431739 1.35643,-0.256374 0.981373,0.325265 1.248922,1.561698 0.498137,2.302074 -0.445392,0.439218 -1.072829,0.529786 -1.648373,0.237937 -0.292484,-0.14831 -0.449748,-0.319689 -0.603869,-0.658032 z"
       id="path1432"
       inkscape:transform-center-x="6.0478911"
       inkscape:transform-center-y="5.3238519" />
  </g>
</svg>
